<svg width="1100" height="530" xmlns="http://www.w3.org/2000/svg" xmlns:xlink="http://www.w3.org/1999/xlink" overflow="hidden"><defs><clipPath id="clip0"><rect x="90" y="95" width="1100" height="530"/></clipPath><clipPath id="clip1"><rect x="91" y="96" width="1098" height="528"/></clipPath><clipPath id="clip2"><rect x="91" y="96" width="1098" height="528"/></clipPath><clipPath id="clip3"><rect x="91" y="96" width="1098" height="528"/></clipPath><clipPath id="clip4"><rect x="189" y="145" width="965" height="390"/></clipPath><clipPath id="clip5"><rect x="189" y="145" width="965" height="390"/></clipPath><clipPath id="clip6"><rect x="189" y="145" width="965" height="390"/></clipPath><clipPath id="clip7"><rect x="189" y="145" width="965" height="390"/></clipPath><clipPath id="clip8"><rect x="189" y="145" width="965" height="390"/></clipPath><clipPath id="clip9"><rect x="91" y="96" width="1098" height="528"/></clipPath><clipPath id="clip10"><rect x="91" y="96" width="1098" height="528"/></clipPath><clipPath id="clip11"><rect x="91" y="96" width="1098" height="528"/></clipPath><clipPath id="clip12"><rect x="91" y="96" width="1098" height="528"/></clipPath><clipPath id="clip13"><rect x="91" y="96" width="1098" height="528"/></clipPath><clipPath id="clip14"><rect x="91" y="96" width="1098" height="528"/></clipPath><clipPath id="clip15"><rect x="91" y="96" width="1098" height="528"/></clipPath><clipPath id="clip16"><rect x="91" y="96" width="1098" height="528"/></clipPath><clipPath id="clip17"><rect x="91" y="96" width="1098" height="528"/></clipPath><clipPath id="clip18"><rect x="91" y="96" width="1098" height="528"/></clipPath><clipPath id="clip19"><rect x="91" y="96" width="1098" height="528"/></clipPath><clipPath id="clip20"><rect x="91" y="96" width="1098" height="528"/></clipPath><clipPath id="clip21"><rect x="91" y="96" width="1098" height="528"/></clipPath><clipPath id="clip22"><rect x="91" y="96" width="1098" height="528"/></clipPath><clipPath id="clip23"><rect x="91" y="96" width="1098" height="528"/></clipPath><clipPath id="clip24"><rect x="91" y="96" width="1098" height="528"/></clipPath><clipPath id="clip25"><rect x="91" y="96" width="1098" height="528"/></clipPath><clipPath id="clip26"><rect x="91" y="96" width="1098" height="528"/></clipPath><clipPath id="clip27"><rect x="91" y="96" width="1098" height="528"/></clipPath><clipPath id="clip28"><rect x="91" y="96" width="1098" height="528"/></clipPath><clipPath id="clip29"><rect x="91" y="96" width="1098" height="528"/></clipPath><clipPath id="clip30"><rect x="91" y="96" width="1098" height="528"/></clipPath><clipPath id="clip31"><rect x="91" y="96" width="1098" height="528"/></clipPath><clipPath id="clip32"><rect x="91" y="96" width="1098" height="528"/></clipPath><clipPath id="clip33"><rect x="91" y="96" width="1098" height="528"/></clipPath><clipPath id="clip34"><rect x="91" y="96" width="1098" height="528"/></clipPath><clipPath id="clip35"><rect x="91" y="96" width="1098" height="528"/></clipPath><clipPath id="clip36"><rect x="91" y="96" width="1098" height="528"/></clipPath><clipPath id="clip37"><rect x="91" y="96" width="1098" height="528"/></clipPath><clipPath id="clip38"><rect x="91" y="96" width="1098" height="528"/></clipPath><clipPath id="clip39"><rect x="91" y="96" width="1098" height="528"/></clipPath><clipPath id="clip40"><rect x="91" y="96" width="1098" height="528"/></clipPath></defs><g clip-path="url(#clip0)" transform="translate(-90 -95)"><g clip-path="url(#clip1)"><path d="M189.5 478.5 1153.5 478.5M189.5 423.5 1153.5 423.5M189.5 367.5 1153.5 367.5M189.5 312.5 1153.5 312.5M189.5 256.5 1153.5 256.5M189.5 201.5 1153.5 201.5M189.5 145.5 1153.5 145.5" stroke="#D9D9D9" stroke-linejoin="round" stroke-miterlimit="10" fill="none"/></g><g clip-path="url(#clip2)"><path d="M189.5 145.5 189.5 534.5M237.5 145.5 237.5 534.5M285.5 145.5 285.5 534.5M333.5 145.5 333.5 534.5M382.5 145.5 382.5 534.5M430.5 145.5 430.5 534.5M478.5 145.5 478.5 534.5M526.5 145.5 526.5 534.5M574.5 145.5 574.5 534.5M623.5 145.5 623.5 534.5M671.5 145.5 671.5 534.5M719.5 145.5 719.5 534.5M767.5 145.5 767.5 534.5M815.5 145.5 815.5 534.5M863.5 145.5 863.5 534.5M912.5 145.5 912.5 534.5M960.5 145.5 960.5 534.5M1008.5 145.5 1008.5 534.5M1056.5 145.5 1056.5 534.5M1104.5 145.5 1104.5 534.5M1153.5 145.5 1153.5 534.5" stroke="#F2F2F2" stroke-linejoin="round" stroke-miterlimit="10" fill="none"/></g><g clip-path="url(#clip3)"><path d="M189.5 534.5 1153.5 534.5" stroke="#D9D9D9" stroke-linejoin="round" stroke-miterlimit="10" fill="none" fill-rule="evenodd"/></g><g clip-path="url(#clip4)"><path d="M189.5 532.5 285.5 531.5 382.5 531.5 478.5 531.5 574.5 530.5 671.5 528.5 767.5 524.5 863.5 518.5 960.5 515.5 1056.5 515.5 1153.5 509.5" stroke="#70AD47" stroke-width="3" stroke-linecap="round" stroke-linejoin="round" stroke-miterlimit="10" fill="none"/></g><g clip-path="url(#clip5)"><path d="M189.5 531.5C221.633 530.826 253.767 530.226 285.9 529.479 318.033 528.733 350.167 527.865 382.3 527.024 414.433 526.183 446.567 524.973 478.7 524.434 510.833 523.894 542.967 525.764 575.1 523.786 607.233 521.809 639.367 517.889 671.5 512.568 703.633 507.246 735.767 497.83 767.9 491.86 800.033 485.89 832.167 481.17 864.3 476.745 896.433 472.321 928.567 468.501 960.7 465.314 992.833 462.127 1024.97 460.925 1057.1 457.623 1089.23 454.321 1121.37 449.541 1153.5 445.5" stroke="#5B9BD5" stroke-width="3" stroke-linecap="round" stroke-linejoin="round" stroke-miterlimit="10" fill="none"/></g><g clip-path="url(#clip6)"><path d="M189.5 533.5 285.5 532.5 382.5 531.5 478.5 530.5 574.5 528.5 671.5 520.5 767.5 500.5 863.5 484.5 960.5 461.5 1056.5 456.5 1153.5 431.5" stroke="#FFC000" stroke-width="3" stroke-linecap="round" stroke-linejoin="round" stroke-miterlimit="10" fill="none"/></g><g clip-path="url(#clip7)"><path d="M189.5 531.5 285.5 531.5 382.5 530.5 478.5 529.5 574.5 529.5 671.5 526.5 767.5 521.5 863.5 509.5 960.5 502.5 1056.5 498.5 1153.5 494.5" stroke="#43682B" stroke-width="3" stroke-linecap="round" stroke-linejoin="round" stroke-miterlimit="10" fill="none"/></g><g clip-path="url(#clip8)"><path d="M189.5 528.5 285.5 523.5 382.5 520.5 478.5 512.5 574.5 509.5 671.5 477.5 767.5 403.5 863.5 346.5 960.5 256.5 1056.5 215.5 1153.5 185.5" stroke="#255E91" stroke-width="3" stroke-linecap="round" stroke-linejoin="round" stroke-miterlimit="10" fill="none"/></g><g clip-path="url(#clip9)"><text fill="#595959" font-family="Calibri,Calibri_MSFontService,sans-serif" font-weight="400" font-size="12" transform="translate(155.253 537)">0 ms</text></g><g clip-path="url(#clip10)"><text fill="#595959" font-family="Calibri,Calibri_MSFontService,sans-serif" font-weight="400" font-size="12" transform="translate(134.02 482)">5,000 ms</text></g><g clip-path="url(#clip11)"><text fill="#595959" font-family="Calibri,Calibri_MSFontService,sans-serif" font-weight="400" font-size="12" transform="translate(127.94 426)">10,000 ms</text></g><g clip-path="url(#clip12)"><text fill="#595959" font-family="Calibri,Calibri_MSFontService,sans-serif" font-weight="400" font-size="12" transform="translate(127.94 371)">15,000 ms</text></g><g clip-path="url(#clip13)"><text fill="#595959" font-family="Calibri,Calibri_MSFontService,sans-serif" font-weight="400" font-size="12" transform="translate(127.94 315)">20,000 ms</text></g><g clip-path="url(#clip14)"><text fill="#595959" font-family="Calibri,Calibri_MSFontService,sans-serif" font-weight="400" font-size="12" transform="translate(127.94 260)">25,000 ms</text></g><g clip-path="url(#clip15)"><text fill="#595959" font-family="Calibri,Calibri_MSFontService,sans-serif" font-weight="400" font-size="12" transform="translate(127.94 204)">30,000 ms</text></g><g clip-path="url(#clip16)"><text fill="#595959" font-family="Calibri,Calibri_MSFontService,sans-serif" font-weight="400" font-size="12" transform="translate(127.94 148)">35,000 ms</text></g><g clip-path="url(#clip17)"><text fill="#595959" font-family="Calibri,Calibri_MSFontService,sans-serif" font-weight="400" font-size="12" transform="translate(174.259 553)">49861</text></g><g clip-path="url(#clip18)"><text fill="#595959" font-family="Calibri,Calibri_MSFontService,sans-serif" font-weight="400" font-size="12" transform="translate(267.578 553)">124339</text></g><g clip-path="url(#clip19)"><text fill="#595959" font-family="Calibri,Calibri_MSFontService,sans-serif" font-weight="400" font-size="12" transform="translate(363.938 553)">250640</text></g><g clip-path="url(#clip20)"><text fill="#595959" font-family="Calibri,Calibri_MSFontService,sans-serif" font-weight="400" font-size="12" transform="translate(460.297 553)">374912</text></g><g clip-path="url(#clip21)"><text fill="#595959" font-family="Calibri,Calibri_MSFontService,sans-serif" font-weight="400" font-size="12" transform="translate(556.657 553)">498570</text></g><g clip-path="url(#clip22)"><text fill="#595959" font-family="Calibri,Calibri_MSFontService,sans-serif" font-weight="400" font-size="12" transform="translate(649.976 553)">1250088</text></g><g clip-path="url(#clip23)"><text fill="#595959" font-family="Calibri,Calibri_MSFontService,sans-serif" font-weight="400" font-size="12" transform="translate(746.336 553)">2498910</text></g><g clip-path="url(#clip24)"><text fill="#595959" font-family="Calibri,Calibri_MSFontService,sans-serif" font-weight="400" font-size="12" transform="translate(842.695 553)">3750033</text></g><g clip-path="url(#clip25)"><text fill="#595959" font-family="Calibri,Calibri_MSFontService,sans-serif" font-weight="400" font-size="12" transform="translate(939.055 553)">4997509</text></g><g clip-path="url(#clip26)"><text fill="#595959" font-family="Calibri,Calibri_MSFontService,sans-serif" font-weight="400" font-size="12" transform="translate(1035.41 553)">6249029</text></g><g clip-path="url(#clip27)"><text fill="#595959" font-family="Calibri,Calibri_MSFontService,sans-serif" font-weight="400" font-size="12" transform="translate(1131.77 553)">7502091</text></g><g clip-path="url(#clip28)"><text fill="#595959" font-family="Calibri,Calibri_MSFontService,sans-serif" font-weight="400" font-size="13" transform="matrix(6.12323e-17 -1 1 6.12323e-17 120.667 363)">Runtime</text></g><g clip-path="url(#clip29)"><text fill="#595959" font-family="Calibri,Calibri_MSFontService,sans-serif" font-weight="400" font-size="13" transform="translate(640.959 574)">Edge count</text></g><g clip-path="url(#clip30)"><text fill="#595959" font-family="Calibri,Calibri_MSFontService,sans-serif" font-weight="400" font-size="19" transform="translate(312.753 124)">Runtime of different algorithms for minimal spanning tree calculation for 10000 Nodes</text></g><g clip-path="url(#clip31)"><path d="M391.5 604.5 416.5 604.5" stroke="#70AD47" stroke-width="3" stroke-linecap="round" stroke-linejoin="round" stroke-miterlimit="10" fill="none" fill-rule="evenodd"/></g><g clip-path="url(#clip32)"><text fill="#595959" font-family="Calibri,Calibri_MSFontService,sans-serif" font-weight="400" font-size="12" transform="translate(419.585 608)">Prim</text></g><g clip-path="url(#clip33)"><path d="M460.5 604.5 486.5 604.5" stroke="#5B9BD5" stroke-width="3" stroke-linecap="round" stroke-linejoin="round" stroke-miterlimit="10" fill="none" fill-rule="evenodd"/></g><g clip-path="url(#clip34)"><text fill="#595959" font-family="Calibri,Calibri_MSFontService,sans-serif" font-weight="400" font-size="12" transform="translate(489.189 608)">Kruskal</text></g><g clip-path="url(#clip35)"><path d="M543.5 604.5 568.5 604.5" stroke="#FFC000" stroke-width="3" stroke-linecap="round" stroke-linejoin="round" stroke-miterlimit="10" fill="none" fill-rule="evenodd"/></g><g clip-path="url(#clip36)"><text fill="#595959" font-family="Calibri,Calibri_MSFontService,sans-serif" font-weight="400" font-size="12" transform="translate(571.439 608)">Boruvka</text></g><g clip-path="url(#clip37)"><path d="M629.5 604.5 655.5 604.5" stroke="#43682B" stroke-width="3" stroke-linecap="round" stroke-linejoin="round" stroke-miterlimit="10" fill="none" fill-rule="evenodd"/></g><g clip-path="url(#clip38)"><text fill="#595959" font-family="Calibri,Calibri_MSFontService,sans-serif" font-weight="400" font-size="12" transform="translate(658.283 608)">Fredman, Tarjan</text></g><g clip-path="url(#clip39)"><path d="M756.5 604.5 782.5 604.5" stroke="#255E91" stroke-width="3" stroke-linecap="round" stroke-linejoin="round" stroke-miterlimit="10" fill="none" fill-rule="evenodd"/></g><g clip-path="url(#clip40)"><text fill="#595959" font-family="Calibri,Calibri_MSFontService,sans-serif" font-weight="400" font-size="12" transform="translate(785.194 608)">Pettie, Ramachandran</text></g></g></svg>