<svg width="1100" height="530" xmlns="http://www.w3.org/2000/svg" xmlns:xlink="http://www.w3.org/1999/xlink" overflow="hidden"><defs><clipPath id="clip0"><rect x="90" y="95" width="1100" height="530"/></clipPath><clipPath id="clip1"><rect x="91" y="96" width="1098" height="528"/></clipPath><clipPath id="clip2"><rect x="91" y="96" width="1098" height="528"/></clipPath><clipPath id="clip3"><rect x="91" y="96" width="1098" height="528"/></clipPath><clipPath id="clip4"><rect x="158" y="145" width="993" height="390"/></clipPath><clipPath id="clip5"><rect x="91" y="96" width="1098" height="528"/></clipPath><clipPath id="clip6"><rect x="158" y="145" width="993" height="390"/></clipPath><clipPath id="clip7"><rect x="91" y="96" width="1098" height="528"/></clipPath><clipPath id="clip8"><rect x="158" y="145" width="993" height="390"/></clipPath><clipPath id="clip9"><rect x="91" y="96" width="1098" height="528"/></clipPath><clipPath id="clip10"><rect x="158" y="145" width="993" height="390"/></clipPath><clipPath id="clip11"><rect x="91" y="96" width="1098" height="528"/></clipPath><clipPath id="clip12"><rect x="158" y="145" width="993" height="390"/></clipPath><clipPath id="clip13"><rect x="91" y="96" width="1098" height="528"/></clipPath><clipPath id="clip14"><rect x="91" y="96" width="1098" height="528"/></clipPath><clipPath id="clip15"><rect x="91" y="96" width="1098" height="528"/></clipPath><clipPath id="clip16"><rect x="91" y="96" width="1098" height="528"/></clipPath><clipPath id="clip17"><rect x="91" y="96" width="1098" height="528"/></clipPath><clipPath id="clip18"><rect x="91" y="96" width="1098" height="528"/></clipPath><clipPath id="clip19"><rect x="91" y="96" width="1098" height="528"/></clipPath><clipPath id="clip20"><rect x="91" y="96" width="1098" height="528"/></clipPath><clipPath id="clip21"><rect x="91" y="96" width="1098" height="528"/></clipPath><clipPath id="clip22"><rect x="91" y="96" width="1098" height="528"/></clipPath><clipPath id="clip23"><rect x="91" y="96" width="1098" height="528"/></clipPath><clipPath id="clip24"><rect x="91" y="96" width="1098" height="528"/></clipPath><clipPath id="clip25"><rect x="91" y="96" width="1098" height="528"/></clipPath><clipPath id="clip26"><rect x="91" y="96" width="1098" height="528"/></clipPath><clipPath id="clip27"><rect x="91" y="96" width="1098" height="528"/></clipPath><clipPath id="clip28"><rect x="91" y="96" width="1098" height="528"/></clipPath><clipPath id="clip29"><rect x="91" y="96" width="1098" height="528"/></clipPath><clipPath id="clip30"><rect x="91" y="96" width="1098" height="528"/></clipPath><clipPath id="clip31"><rect x="-94" y="191" width="220" height="298"/></clipPath><clipPath id="clip32"><rect x="91" y="96" width="1098" height="528"/></clipPath><clipPath id="clip33"><rect x="91" y="96" width="1098" height="528"/></clipPath><clipPath id="clip34"><rect x="91" y="96" width="1098" height="528"/></clipPath><clipPath id="clip35"><rect x="91" y="96" width="1098" height="528"/></clipPath><clipPath id="clip36"><rect x="91" y="96" width="1098" height="528"/></clipPath><clipPath id="clip37"><rect x="91" y="96" width="1098" height="528"/></clipPath><clipPath id="clip38"><rect x="91" y="96" width="1098" height="528"/></clipPath><clipPath id="clip39"><rect x="91" y="96" width="1098" height="528"/></clipPath><clipPath id="clip40"><rect x="91" y="96" width="1098" height="528"/></clipPath><clipPath id="clip41"><rect x="91" y="96" width="1098" height="528"/></clipPath><clipPath id="clip42"><rect x="91" y="96" width="1098" height="528"/></clipPath><clipPath id="clip43"><rect x="91" y="96" width="1098" height="528"/></clipPath><clipPath id="clip44"><rect x="91" y="96" width="1098" height="528"/></clipPath><clipPath id="clip45"><rect x="91" y="96" width="1098" height="528"/></clipPath><clipPath id="clip46"><rect x="91" y="96" width="1098" height="528"/></clipPath><clipPath id="clip47"><rect x="91" y="96" width="1098" height="528"/></clipPath><clipPath id="clip48"><rect x="91" y="96" width="1098" height="528"/></clipPath></defs><g clip-path="url(#clip0)" transform="translate(-90 -95)"><g clip-path="url(#clip1)"><path d="M158.5 478.5 1150.5 478.5M158.5 423.5 1150.5 423.5M158.5 367.5 1150.5 367.5M158.5 312.5 1150.5 312.5M158.5 256.5 1150.5 256.5M158.5 201.5 1150.5 201.5M158.5 145.5 1150.5 145.5" stroke="#D9D9D9" stroke-linejoin="round" stroke-miterlimit="10" fill="none"/></g><g clip-path="url(#clip2)"><path d="M158.5 145.5 158.5 534.5M224.5 145.5 224.5 534.5M290.5 145.5 290.5 534.5M356.5 145.5 356.5 534.5M423.5 145.5 423.5 534.5M489.5 145.5 489.5 534.5M555.5 145.5 555.5 534.5M621.5 145.5 621.5 534.5M687.5 145.5 687.5 534.5M753.5 145.5 753.5 534.5M819.5 145.5 819.5 534.5M885.5 145.5 885.5 534.5M951.5 145.5 951.5 534.5M1017.5 145.5 1017.5 534.5M1083.5 145.5 1083.5 534.5M1150.5 145.5 1150.5 534.5" stroke="#F2F2F2" stroke-linejoin="round" stroke-miterlimit="10" fill="none"/></g><g clip-path="url(#clip3)"><path d="M158.5 534.5 1150.5 534.5" stroke="#D9D9D9" stroke-linejoin="round" stroke-miterlimit="10" fill="none" fill-rule="evenodd"/></g><g clip-path="url(#clip4)"><path d="M165.5 532.5 175.5 531.5 191.5 531.5 208.5 531.5 224.5 530.5 323.5 528.5 488.5 524.5 654.5 518.5 819.5 515.5 984.5 515.5 1150.5 509.5" stroke="#70AD47" stroke-width="3" stroke-linecap="round" stroke-linejoin="round" stroke-miterlimit="10" fill="none"/></g><g clip-path="url(#clip5)"><path d="M168.5 532.667C168.5 534.508 167.008 536 165.167 536 163.326 536 161.833 534.508 161.833 532.667 161.833 530.826 163.326 529.333 165.167 529.333 167.008 529.333 168.5 530.826 168.5 532.667Z" stroke="#70AD47" stroke-linejoin="round" stroke-miterlimit="10" fill="#70AD47"/><path d="M178.333 531.667C178.333 533.508 176.841 535 175 535 173.159 535 171.667 533.508 171.667 531.667 171.667 529.826 173.159 528.333 175 528.333 176.841 528.333 178.333 529.826 178.333 531.667Z" stroke="#70AD47" stroke-linejoin="round" stroke-miterlimit="10" fill="#70AD47"/><path d="M195.167 531.667C195.167 533.508 193.674 535 191.833 535 189.992 535 188.5 533.508 188.5 531.667 188.5 529.826 189.992 528.333 191.833 528.333 193.674 528.333 195.167 529.826 195.167 531.667Z" stroke="#70AD47" stroke-linejoin="round" stroke-miterlimit="10" fill="#70AD47"/><path d="M211.5 531.167C211.5 533.008 210.008 534.5 208.167 534.5 206.326 534.5 204.833 533.008 204.833 531.167 204.833 529.326 206.326 527.833 208.167 527.833 210.008 527.833 211.5 529.326 211.5 531.167Z" stroke="#70AD47" stroke-linejoin="round" stroke-miterlimit="10" fill="#70AD47"/><path d="M227.833 530.833C227.833 532.674 226.341 534.167 224.5 534.167 222.659 534.167 221.167 532.674 221.167 530.833 221.167 528.992 222.659 527.5 224.5 527.5 226.341 527.5 227.833 528.992 227.833 530.833Z" stroke="#70AD47" stroke-linejoin="round" stroke-miterlimit="10" fill="#70AD47"/><path d="M327.167 528.833C327.167 530.674 325.674 532.167 323.833 532.167 321.992 532.167 320.5 530.674 320.5 528.833 320.5 526.992 321.992 525.5 323.833 525.5 325.674 525.5 327.167 526.992 327.167 528.833Z" stroke="#70AD47" stroke-linejoin="round" stroke-miterlimit="10" fill="#70AD47"/><path d="M492.333 524.167C492.333 526.008 490.841 527.5 489 527.5 487.159 527.5 485.667 526.008 485.667 524.167 485.667 522.326 487.159 520.833 489 520.833 490.841 520.833 492.333 522.326 492.333 524.167Z" stroke="#70AD47" stroke-linejoin="round" stroke-miterlimit="10" fill="#70AD47"/><path d="M657.667 518C657.667 519.841 656.174 521.333 654.333 521.333 652.492 521.333 651 519.841 651 518 651 516.159 652.492 514.667 654.333 514.667 656.174 514.667 657.667 516.159 657.667 518Z" stroke="#70AD47" stroke-linejoin="round" stroke-miterlimit="10" fill="#70AD47"/><path d="M822.667 515.667C822.667 517.508 821.174 519 819.333 519 817.492 519 816 517.508 816 515.667 816 513.826 817.492 512.333 819.333 512.333 821.174 512.333 822.667 513.826 822.667 515.667Z" stroke="#70AD47" stroke-linejoin="round" stroke-miterlimit="10" fill="#70AD47"/><path d="M988 515.167C988 517.008 986.508 518.5 984.667 518.5 982.826 518.5 981.333 517.008 981.333 515.167 981.333 513.326 982.826 511.833 984.667 511.833 986.508 511.833 988 513.326 988 515.167Z" stroke="#70AD47" stroke-linejoin="round" stroke-miterlimit="10" fill="#70AD47"/></g><g clip-path="url(#clip6)"><path d="M165.5 531.5 175.5 529.5 191.5 526.5 208.5 524.5 224.5 523.5 323.5 512.5 488.5 491.5 654.5 476.5 819.5 465.5 984.5 457.5 1150.5 445.5" stroke="#5B9BD5" stroke-width="3" stroke-linecap="round" stroke-linejoin="round" stroke-miterlimit="10" fill="none"/></g><g clip-path="url(#clip7)"><path d="M168.5 531.167C168.5 533.008 167.008 534.5 165.167 534.5 163.326 534.5 161.833 533.008 161.833 531.167 161.833 529.326 163.326 527.833 165.167 527.833 167.008 527.833 168.5 529.326 168.5 531.167Z" stroke="#5B9BD5" stroke-linejoin="round" stroke-miterlimit="10" fill="#5B9BD5"/><path d="M178.333 529C178.333 530.841 176.841 532.333 175 532.333 173.159 532.333 171.667 530.841 171.667 529 171.667 527.159 173.159 525.667 175 525.667 176.841 525.667 178.333 527.159 178.333 529Z" stroke="#5B9BD5" stroke-linejoin="round" stroke-miterlimit="10" fill="#5B9BD5"/><path d="M195.167 526.667C195.167 528.508 193.674 530 191.833 530 189.992 530 188.5 528.508 188.5 526.667 188.5 524.826 189.992 523.333 191.833 523.333 193.674 523.333 195.167 524.826 195.167 526.667Z" stroke="#5B9BD5" stroke-linejoin="round" stroke-miterlimit="10" fill="#5B9BD5"/><path d="M211.5 524C211.5 525.841 210.008 527.333 208.167 527.333 206.326 527.333 204.833 525.841 204.833 524 204.833 522.159 206.326 520.667 208.167 520.667 210.008 520.667 211.5 522.159 211.5 524Z" stroke="#5B9BD5" stroke-linejoin="round" stroke-miterlimit="10" fill="#5B9BD5"/><path d="M227.833 523.333C227.833 525.174 226.341 526.667 224.5 526.667 222.659 526.667 221.167 525.174 221.167 523.333 221.167 521.492 222.659 520 224.5 520 226.341 520 227.833 521.492 227.833 523.333Z" stroke="#5B9BD5" stroke-linejoin="round" stroke-miterlimit="10" fill="#5B9BD5"/><path d="M327.167 512.167C327.167 514.008 325.674 515.5 323.833 515.5 321.992 515.5 320.5 514.008 320.5 512.167 320.5 510.326 321.992 508.833 323.833 508.833 325.674 508.833 327.167 510.326 327.167 512.167Z" stroke="#5B9BD5" stroke-linejoin="round" stroke-miterlimit="10" fill="#5B9BD5"/><path d="M492.333 491.667C492.333 493.508 490.841 495 489 495 487.159 495 485.667 493.508 485.667 491.667 485.667 489.826 487.159 488.333 489 488.333 490.841 488.333 492.333 489.826 492.333 491.667Z" stroke="#5B9BD5" stroke-linejoin="round" stroke-miterlimit="10" fill="#5B9BD5"/><path d="M657.667 476.667C657.667 478.508 656.174 480 654.333 480 652.492 480 651 478.508 651 476.667 651 474.826 652.492 473.333 654.333 473.333 656.174 473.333 657.667 474.826 657.667 476.667Z" stroke="#5B9BD5" stroke-linejoin="round" stroke-miterlimit="10" fill="#5B9BD5"/><path d="M822.667 465.167C822.667 467.008 821.174 468.5 819.333 468.5 817.492 468.5 816 467.008 816 465.167 816 463.326 817.492 461.833 819.333 461.833 821.174 461.833 822.667 463.326 822.667 465.167Z" stroke="#5B9BD5" stroke-linejoin="round" stroke-miterlimit="10" fill="#5B9BD5"/><path d="M988 457.5C988 459.341 986.508 460.833 984.667 460.833 982.826 460.833 981.333 459.341 981.333 457.5 981.333 455.659 982.826 454.167 984.667 454.167 986.508 454.167 988 455.659 988 457.5Z" stroke="#5B9BD5" stroke-linejoin="round" stroke-miterlimit="10" fill="#5B9BD5"/></g><g clip-path="url(#clip8)"><path d="M165.5 533.5 175.5 532.5 191.5 531.5 208.5 530.5 224.5 528.5 323.5 520.5 488.5 500.5 654.5 484.5 819.5 461.5 984.5 456.5 1150.5 431.5" stroke="#FFC000" stroke-width="3" stroke-linecap="round" stroke-linejoin="round" stroke-miterlimit="10" fill="none"/></g><g clip-path="url(#clip9)"><path d="M168.5 533.5C168.5 535.341 167.008 536.833 165.167 536.833 163.326 536.833 161.833 535.341 161.833 533.5 161.833 531.659 163.326 530.167 165.167 530.167 167.008 530.167 168.5 531.659 168.5 533.5Z" stroke="#FFC000" stroke-linejoin="round" stroke-miterlimit="10" fill="#FFC000"/><path d="M178.333 532.667C178.333 534.508 176.841 536 175 536 173.159 536 171.667 534.508 171.667 532.667 171.667 530.826 173.159 529.333 175 529.333 176.841 529.333 178.333 530.826 178.333 532.667Z" stroke="#FFC000" stroke-linejoin="round" stroke-miterlimit="10" fill="#FFC000"/><path d="M195.167 531.333C195.167 533.174 193.674 534.667 191.833 534.667 189.992 534.667 188.5 533.174 188.5 531.333 188.5 529.492 189.992 528 191.833 528 193.674 528 195.167 529.492 195.167 531.333Z" stroke="#FFC000" stroke-linejoin="round" stroke-miterlimit="10" fill="#FFC000"/><path d="M211.5 530.333C211.5 532.174 210.008 533.667 208.167 533.667 206.326 533.667 204.833 532.174 204.833 530.333 204.833 528.492 206.326 527 208.167 527 210.008 527 211.5 528.492 211.5 530.333Z" stroke="#FFC000" stroke-linejoin="round" stroke-miterlimit="10" fill="#FFC000"/><path d="M227.833 528.833C227.833 530.674 226.341 532.167 224.5 532.167 222.659 532.167 221.167 530.674 221.167 528.833 221.167 526.992 222.659 525.5 224.5 525.5 226.341 525.5 227.833 526.992 227.833 528.833Z" stroke="#FFC000" stroke-linejoin="round" stroke-miterlimit="10" fill="#FFC000"/><path d="M327.167 520.667C327.167 522.508 325.674 524 323.833 524 321.992 524 320.5 522.508 320.5 520.667 320.5 518.826 321.992 517.333 323.833 517.333 325.674 517.333 327.167 518.826 327.167 520.667Z" stroke="#FFC000" stroke-linejoin="round" stroke-miterlimit="10" fill="#FFC000"/><path d="M492.333 500.167C492.333 502.008 490.841 503.5 489 503.5 487.159 503.5 485.667 502.008 485.667 500.167 485.667 498.326 487.159 496.833 489 496.833 490.841 496.833 492.333 498.326 492.333 500.167Z" stroke="#FFC000" stroke-linejoin="round" stroke-miterlimit="10" fill="#FFC000"/><path d="M657.667 484.833C657.667 486.674 656.174 488.167 654.333 488.167 652.492 488.167 651 486.674 651 484.833 651 482.992 652.492 481.5 654.333 481.5 656.174 481.5 657.667 482.992 657.667 484.833Z" stroke="#FFC000" stroke-linejoin="round" stroke-miterlimit="10" fill="#FFC000"/><path d="M822.667 461.667C822.667 463.508 821.174 465 819.333 465 817.492 465 816 463.508 816 461.667 816 459.826 817.492 458.333 819.333 458.333 821.174 458.333 822.667 459.826 822.667 461.667Z" stroke="#FFC000" stroke-linejoin="round" stroke-miterlimit="10" fill="#FFC000"/><path d="M988 456.5C988 458.341 986.508 459.833 984.667 459.833 982.826 459.833 981.333 458.341 981.333 456.5 981.333 454.659 982.826 453.167 984.667 453.167 986.508 453.167 988 454.659 988 456.5Z" stroke="#FFC000" stroke-linejoin="round" stroke-miterlimit="10" fill="#FFC000"/></g><g clip-path="url(#clip10)"><path d="M165.5 531.5 175.5 531.5 191.5 530.5 208.5 529.5 224.5 529.5 323.5 526.5 488.5 521.5 654.5 509.5 819.5 502.5 984.5 498.5 1150.5 494.5" stroke="#43682B" stroke-width="3" stroke-linecap="round" stroke-linejoin="round" stroke-miterlimit="10" fill="none"/></g><g clip-path="url(#clip11)"><path d="M168.5 531.167C168.5 533.008 167.008 534.5 165.167 534.5 163.326 534.5 161.833 533.008 161.833 531.167 161.833 529.326 163.326 527.833 165.167 527.833 167.008 527.833 168.5 529.326 168.5 531.167Z" stroke="#43682B" stroke-linejoin="round" stroke-miterlimit="10" fill="#43682B"/><path d="M178.333 531.5C178.333 533.341 176.841 534.833 175 534.833 173.159 534.833 171.667 533.341 171.667 531.5 171.667 529.659 173.159 528.167 175 528.167 176.841 528.167 178.333 529.659 178.333 531.5Z" stroke="#43682B" stroke-linejoin="round" stroke-miterlimit="10" fill="#43682B"/><path d="M195.167 530.667C195.167 532.508 193.674 534 191.833 534 189.992 534 188.5 532.508 188.5 530.667 188.5 528.826 189.992 527.333 191.833 527.333 193.674 527.333 195.167 528.826 195.167 530.667Z" stroke="#43682B" stroke-linejoin="round" stroke-miterlimit="10" fill="#43682B"/><path d="M211.5 530C211.5 531.841 210.008 533.333 208.167 533.333 206.326 533.333 204.833 531.841 204.833 530 204.833 528.159 206.326 526.667 208.167 526.667 210.008 526.667 211.5 528.159 211.5 530Z" stroke="#43682B" stroke-linejoin="round" stroke-miterlimit="10" fill="#43682B"/><path d="M227.833 529.667C227.833 531.508 226.341 533 224.5 533 222.659 533 221.167 531.508 221.167 529.667 221.167 527.826 222.659 526.333 224.5 526.333 226.341 526.333 227.833 527.826 227.833 529.667Z" stroke="#43682B" stroke-linejoin="round" stroke-miterlimit="10" fill="#43682B"/><path d="M327.167 526.833C327.167 528.674 325.674 530.167 323.833 530.167 321.992 530.167 320.5 528.674 320.5 526.833 320.5 524.992 321.992 523.5 323.833 523.5 325.674 523.5 327.167 524.992 327.167 526.833Z" stroke="#43682B" stroke-linejoin="round" stroke-miterlimit="10" fill="#43682B"/><path d="M492.333 521C492.333 522.841 490.841 524.333 489 524.333 487.159 524.333 485.667 522.841 485.667 521 485.667 519.159 487.159 517.667 489 517.667 490.841 517.667 492.333 519.159 492.333 521Z" stroke="#43682B" stroke-linejoin="round" stroke-miterlimit="10" fill="#43682B"/><path d="M657.667 510C657.667 511.841 656.174 513.333 654.333 513.333 652.492 513.333 651 511.841 651 510 651 508.159 652.492 506.667 654.333 506.667 656.174 506.667 657.667 508.159 657.667 510Z" stroke="#43682B" stroke-linejoin="round" stroke-miterlimit="10" fill="#43682B"/><path d="M822.667 502.333C822.667 504.174 821.174 505.667 819.333 505.667 817.492 505.667 816 504.174 816 502.333 816 500.492 817.492 499 819.333 499 821.174 499 822.667 500.492 822.667 502.333Z" stroke="#43682B" stroke-linejoin="round" stroke-miterlimit="10" fill="#43682B"/><path d="M988 498.833C988 500.674 986.508 502.167 984.667 502.167 982.826 502.167 981.333 500.674 981.333 498.833 981.333 496.992 982.826 495.5 984.667 495.5 986.508 495.5 988 496.992 988 498.833Z" stroke="#43682B" stroke-linejoin="round" stroke-miterlimit="10" fill="#43682B"/></g><g clip-path="url(#clip12)"><path d="M165.5 528.5 175.5 523.5 191.5 520.5 208.5 512.5 224.5 509.5 323.5 477.5 488.5 403.5 654.5 346.5 819.5 256.5 984.5 215.5 1150.5 185.5" stroke="#255E91" stroke-width="3" stroke-linecap="round" stroke-linejoin="round" stroke-miterlimit="10" fill="none"/></g><g clip-path="url(#clip13)"><path d="M168.5 528C168.5 529.841 167.008 531.333 165.167 531.333 163.326 531.333 161.833 529.841 161.833 528 161.833 526.159 163.326 524.667 165.167 524.667 167.008 524.667 168.5 526.159 168.5 528Z" stroke="#255E91" stroke-linejoin="round" stroke-miterlimit="10" fill="#255E91"/><path d="M178.333 523.333C178.333 525.174 176.841 526.667 175 526.667 173.159 526.667 171.667 525.174 171.667 523.333 171.667 521.492 173.159 520 175 520 176.841 520 178.333 521.492 178.333 523.333Z" stroke="#255E91" stroke-linejoin="round" stroke-miterlimit="10" fill="#255E91"/><path d="M195.167 520.5C195.167 522.341 193.674 523.833 191.833 523.833 189.992 523.833 188.5 522.341 188.5 520.5 188.5 518.659 189.992 517.167 191.833 517.167 193.674 517.167 195.167 518.659 195.167 520.5Z" stroke="#255E91" stroke-linejoin="round" stroke-miterlimit="10" fill="#255E91"/><path d="M211.5 512.333C211.5 514.174 210.008 515.667 208.167 515.667 206.326 515.667 204.833 514.174 204.833 512.333 204.833 510.492 206.326 509 208.167 509 210.008 509 211.5 510.492 211.5 512.333Z" stroke="#255E91" stroke-linejoin="round" stroke-miterlimit="10" fill="#255E91"/><path d="M227.833 509.333C227.833 511.174 226.341 512.667 224.5 512.667 222.659 512.667 221.167 511.174 221.167 509.333 221.167 507.492 222.659 506 224.5 506 226.341 506 227.833 507.492 227.833 509.333Z" stroke="#255E91" stroke-linejoin="round" stroke-miterlimit="10" fill="#255E91"/><path d="M327.167 477.333C327.167 479.174 325.674 480.667 323.833 480.667 321.992 480.667 320.5 479.174 320.5 477.333 320.5 475.492 321.992 474 323.833 474 325.674 474 327.167 475.492 327.167 477.333Z" stroke="#255E91" stroke-linejoin="round" stroke-miterlimit="10" fill="#255E91"/><path d="M492.333 403.833C492.333 405.674 490.841 407.167 489 407.167 487.159 407.167 485.667 405.674 485.667 403.833 485.667 401.992 487.159 400.5 489 400.5 490.841 400.5 492.333 401.992 492.333 403.833Z" stroke="#255E91" stroke-linejoin="round" stroke-miterlimit="10" fill="#255E91"/><path d="M657.667 346.333C657.667 348.174 656.174 349.667 654.333 349.667 652.492 349.667 651 348.174 651 346.333 651 344.492 652.492 343 654.333 343 656.174 343 657.667 344.492 657.667 346.333Z" stroke="#255E91" stroke-linejoin="round" stroke-miterlimit="10" fill="#255E91"/><path d="M822.667 256.167C822.667 258.008 821.174 259.5 819.333 259.5 817.492 259.5 816 258.008 816 256.167 816 254.326 817.492 252.833 819.333 252.833 821.174 252.833 822.667 254.326 822.667 256.167Z" stroke="#255E91" stroke-linejoin="round" stroke-miterlimit="10" fill="#255E91"/><path d="M988 215.333C988 217.174 986.508 218.667 984.667 218.667 982.826 218.667 981.333 217.174 981.333 215.333 981.333 213.492 982.826 212 984.667 212 986.508 212 988 213.492 988 215.333Z" stroke="#255E91" stroke-linejoin="round" stroke-miterlimit="10" fill="#255E91"/></g><g clip-path="url(#clip14)"><text fill="#595959" font-family="Calibri,Calibri_MSFontService,sans-serif" font-weight="400" font-size="12" transform="translate(134.02 537)">0 s</text></g><g clip-path="url(#clip15)"><text fill="#595959" font-family="Calibri,Calibri_MSFontService,sans-serif" font-weight="400" font-size="12" transform="translate(134.02 482)">5 s</text></g><g clip-path="url(#clip16)"><text fill="#595959" font-family="Calibri,Calibri_MSFontService,sans-serif" font-weight="400" font-size="12" transform="translate(127.94 426)">10 s</text></g><g clip-path="url(#clip17)"><text fill="#595959" font-family="Calibri,Calibri_MSFontService,sans-serif" font-weight="400" font-size="12" transform="translate(127.94 371)">15 s</text></g><g clip-path="url(#clip18)"><text fill="#595959" font-family="Calibri,Calibri_MSFontService,sans-serif" font-weight="400" font-size="12" transform="translate(127.94 315)">20 s</text></g><g clip-path="url(#clip19)"><text fill="#595959" font-family="Calibri,Calibri_MSFontService,sans-serif" font-weight="400" font-size="12" transform="translate(127.94 260)">25 s</text></g><g clip-path="url(#clip20)"><text fill="#595959" font-family="Calibri,Calibri_MSFontService,sans-serif" font-weight="400" font-size="12" transform="translate(127.94 204)">30 s</text></g><g clip-path="url(#clip21)"><text fill="#595959" font-family="Calibri,Calibri_MSFontService,sans-serif" font-weight="400" font-size="12" transform="translate(127.94 148)">35 s</text></g><g clip-path="url(#clip22)"><text fill="#595959" font-family="Calibri,Calibri_MSFontService,sans-serif" font-weight="400" font-size="12" transform="translate(155.599 553)">0</text></g><g clip-path="url(#clip23)"><text fill="#595959" font-family="Calibri,Calibri_MSFontService,sans-serif" font-weight="400" font-size="12" transform="translate(266.555 553)">1,000,000</text></g><g clip-path="url(#clip24)"><text fill="#595959" font-family="Calibri,Calibri_MSFontService,sans-serif" font-weight="400" font-size="12" transform="translate(398.745 553)">2,000,000</text></g><g clip-path="url(#clip25)"><text fill="#595959" font-family="Calibri,Calibri_MSFontService,sans-serif" font-weight="400" font-size="12" transform="translate(530.934 553)">3,000,000</text></g><g clip-path="url(#clip26)"><text fill="#595959" font-family="Calibri,Calibri_MSFontService,sans-serif" font-weight="400" font-size="12" transform="translate(663.123 553)">4,000,000</text></g><g clip-path="url(#clip27)"><text fill="#595959" font-family="Calibri,Calibri_MSFontService,sans-serif" font-weight="400" font-size="12" transform="translate(795.313 553)">5,000,000</text></g><g clip-path="url(#clip28)"><text fill="#595959" font-family="Calibri,Calibri_MSFontService,sans-serif" font-weight="400" font-size="12" transform="translate(927.502 553)">6,000,000</text></g><g clip-path="url(#clip29)"><text fill="#595959" font-family="Calibri,Calibri_MSFontService,sans-serif" font-weight="400" font-size="12" transform="translate(1059.69 553)">7,000,000</text></g><g clip-path="url(#clip30)"><g clip-path="url(#clip31)"><text fill="#595959" font-family="Calibri,Calibri_MSFontService,sans-serif" font-weight="400" font-size="13" transform="matrix(6.12323e-17 -1 1 6.12323e-17 120.667 361)">Runtine</text></g></g><g clip-path="url(#clip32)"><text fill="#595959" font-family="Calibri,Calibri_MSFontService,sans-serif" font-weight="400" font-size="13" transform="translate(624.053 574)">Edge count</text></g><g clip-path="url(#clip33)"><text fill="#595959" font-family="Calibri,Calibri_MSFontService,sans-serif" font-weight="400" font-size="19" transform="translate(312.753 124)">Runtime of different algorithms for minimal spanning tree calculation for 10000 Nodes</text></g><g clip-path="url(#clip34)"><path d="M391.5 604.5 416.5 604.5" stroke="#70AD47" stroke-width="3" stroke-linecap="round" stroke-linejoin="round" stroke-miterlimit="10" fill="none" fill-rule="evenodd"/></g><g clip-path="url(#clip35)"><path d="M407.5 605C407.5 606.933 405.933 608.5 404 608.5 402.067 608.5 400.5 606.933 400.5 605 400.5 603.067 402.067 601.5 404 601.5 405.933 601.5 407.5 603.067 407.5 605Z" stroke="#70AD47" stroke-linejoin="round" stroke-miterlimit="10" fill="#70AD47"/></g><g clip-path="url(#clip36)"><text fill="#595959" font-family="Calibri,Calibri_MSFontService,sans-serif" font-weight="400" font-size="12" transform="translate(419.585 608)">Prim</text></g><g clip-path="url(#clip37)"><path d="M460.5 604.5 486.5 604.5" stroke="#5B9BD5" stroke-width="3" stroke-linecap="round" stroke-linejoin="round" stroke-miterlimit="10" fill="none" fill-rule="evenodd"/></g><g clip-path="url(#clip38)"><path d="M477.5 605C477.5 606.933 475.933 608.5 474 608.5 472.067 608.5 470.5 606.933 470.5 605 470.5 603.067 472.067 601.5 474 601.5 475.933 601.5 477.5 603.067 477.5 605Z" stroke="#5B9BD5" stroke-linejoin="round" stroke-miterlimit="10" fill="#5B9BD5"/></g><g clip-path="url(#clip39)"><text fill="#595959" font-family="Calibri,Calibri_MSFontService,sans-serif" font-weight="400" font-size="12" transform="translate(489.189 608)">Kruskal</text></g><g clip-path="url(#clip40)"><path d="M543.5 604.5 568.5 604.5" stroke="#FFC000" stroke-width="3" stroke-linecap="round" stroke-linejoin="round" stroke-miterlimit="10" fill="none" fill-rule="evenodd"/></g><g clip-path="url(#clip41)"><path d="M559.5 605C559.5 606.933 557.933 608.5 556 608.5 554.067 608.5 552.5 606.933 552.5 605 552.5 603.067 554.067 601.5 556 601.5 557.933 601.5 559.5 603.067 559.5 605Z" stroke="#FFC000" stroke-linejoin="round" stroke-miterlimit="10" fill="#FFC000"/></g><g clip-path="url(#clip42)"><text fill="#595959" font-family="Calibri,Calibri_MSFontService,sans-serif" font-weight="400" font-size="12" transform="translate(571.439 608)">Boruvka</text></g><g clip-path="url(#clip43)"><path d="M629.5 604.5 655.5 604.5" stroke="#43682B" stroke-width="3" stroke-linecap="round" stroke-linejoin="round" stroke-miterlimit="10" fill="none" fill-rule="evenodd"/></g><g clip-path="url(#clip44)"><path d="M646.5 605C646.5 606.933 644.933 608.5 643 608.5 641.067 608.5 639.5 606.933 639.5 605 639.5 603.067 641.067 601.5 643 601.5 644.933 601.5 646.5 603.067 646.5 605Z" stroke="#43682B" stroke-linejoin="round" stroke-miterlimit="10" fill="#43682B"/></g><g clip-path="url(#clip45)"><text fill="#595959" font-family="Calibri,Calibri_MSFontService,sans-serif" font-weight="400" font-size="12" transform="translate(658.283 608)">Fredman, Tarjan</text></g><g clip-path="url(#clip46)"><path d="M756.5 604.5 782.5 604.5" stroke="#255E91" stroke-width="3" stroke-linecap="round" stroke-linejoin="round" stroke-miterlimit="10" fill="none" fill-rule="evenodd"/></g><g clip-path="url(#clip47)"><path d="M773.5 605C773.5 606.933 771.933 608.5 770 608.5 768.067 608.5 766.5 606.933 766.5 605 766.5 603.067 768.067 601.5 770 601.5 771.933 601.5 773.5 603.067 773.5 605Z" stroke="#255E91" stroke-linejoin="round" stroke-miterlimit="10" fill="#255E91"/></g><g clip-path="url(#clip48)"><text fill="#595959" font-family="Calibri,Calibri_MSFontService,sans-serif" font-weight="400" font-size="12" transform="translate(785.194 608)">Pettie, Ramachandran</text></g></g></svg>