<?xml version="1.0" encoding="UTF-8" standalone="no"?>
<!DOCTYPE svg PUBLIC "-//W3C//DTD SVG 1.1//EN"
 "http://www.w3.org/Graphics/SVG/1.1/DTD/svg11.dtd">
<!-- Generated by graphviz version 2.50.0 (20211204.2007)
 -->
<!-- Pages: 1 -->
<svg width="1896pt" height="827pt"
 viewBox="0.00 0.00 1896.19 827.00" xmlns="http://www.w3.org/2000/svg" xmlns:xlink="http://www.w3.org/1999/xlink">
<g id="graph0" class="graph" transform="scale(1 1) rotate(0) translate(4 823)">
<polygon fill="white" stroke="transparent" points="-4,4 -4,-823 1892.19,-823 1892.19,4 -4,4"/>
<!-- 0 -->
<g id="node1" class="node">
<title>0</title>
<ellipse fill="none" stroke="black" cx="712.6" cy="-801" rx="27" ry="18"/>
</g>
<!-- 1 -->
<g id="node2" class="node">
<title>1</title>
<ellipse fill="none" stroke="black" cx="473.6" cy="-714" rx="27" ry="18"/>
</g>
<!-- 0&#45;&gt;1 -->
<g id="edge1" class="edge">
<title>0&#45;&gt;1</title>
<path fill="none" stroke="#999999" d="M689.25,-791.7C646.5,-776.49 555.57,-744.15 506.55,-726.72"/>
<polygon fill="#999999" stroke="#999999" points="507.64,-723.39 497.04,-723.34 505.29,-729.99 507.64,-723.39"/>
<text text-anchor="middle" x="611.1" y="-753.8" font-family="Times New Roman,serif" font-size="14.00">0</text>
</g>
<!-- 34 -->
<g id="node35" class="node">
<title>34</title>
<ellipse fill="none" stroke="black" cx="999.6" cy="-714" rx="27" ry="18"/>
</g>
<!-- 0&#45;&gt;34 -->
<g id="edge34" class="edge">
<title>0&#45;&gt;34</title>
<path fill="none" stroke="#999999" d="M737.07,-792.75C788.22,-777.6 906.57,-742.55 965.29,-725.16"/>
<polygon fill="#999999" stroke="#999999" points="966.6,-728.42 975.19,-722.23 964.61,-721.71 966.6,-728.42"/>
<text text-anchor="middle" x="877.1" y="-753.8" font-family="Times New Roman,serif" font-size="14.00">1</text>
</g>
<!-- 2 -->
<g id="node3" class="node">
<title>2</title>
<ellipse fill="none" stroke="black" cx="225.6" cy="-627" rx="27" ry="18"/>
</g>
<!-- 1&#45;&gt;2 -->
<g id="edge2" class="edge">
<title>1&#45;&gt;2</title>
<path fill="none" stroke="#999999" d="M449.82,-704.85C405.38,-689.62 309.64,-656.81 258.84,-639.39"/>
<polygon fill="#999999" stroke="#999999" points="259.9,-636.06 249.3,-636.13 257.63,-642.68 259.9,-636.06"/>
<text text-anchor="middle" x="368.1" y="-666.8" font-family="Times New Roman,serif" font-size="14.00">0</text>
</g>
<!-- 11 -->
<g id="node12" class="node">
<title>11</title>
<ellipse fill="none" stroke="black" cx="473.6" cy="-627" rx="27" ry="18"/>
</g>
<!-- 1&#45;&gt;11 -->
<g id="edge11" class="edge">
<title>1&#45;&gt;11</title>
<path fill="none" stroke="#999999" d="M473.6,-695.8C473.6,-684.16 473.6,-668.55 473.6,-655.24"/>
<polygon fill="#999999" stroke="#999999" points="477.1,-655.18 473.6,-645.18 470.1,-655.18 477.1,-655.18"/>
<text text-anchor="middle" x="477.1" y="-666.8" font-family="Times New Roman,serif" font-size="14.00">1</text>
</g>
<!-- 3 -->
<g id="node4" class="node">
<title>3</title>
<ellipse fill="none" stroke="black" cx="103.6" cy="-540" rx="27" ry="18"/>
</g>
<!-- 2&#45;&gt;3 -->
<g id="edge3" class="edge">
<title>2&#45;&gt;3</title>
<path fill="none" stroke="#999999" d="M207.6,-613.46C187.14,-599.21 153.57,-575.82 130.12,-559.48"/>
<polygon fill="#999999" stroke="#999999" points="131.88,-556.44 121.67,-553.59 127.88,-562.18 131.88,-556.44"/>
<text text-anchor="middle" x="176.1" y="-579.8" font-family="Times New Roman,serif" font-size="14.00">0</text>
</g>
<!-- 6 -->
<g id="node7" class="node">
<title>6</title>
<ellipse fill="none" stroke="black" cx="225.6" cy="-540" rx="27" ry="18"/>
</g>
<!-- 2&#45;&gt;6 -->
<g id="edge6" class="edge">
<title>2&#45;&gt;6</title>
<path fill="none" stroke="#999999" d="M225.6,-608.8C225.6,-597.16 225.6,-581.55 225.6,-568.24"/>
<polygon fill="#999999" stroke="#999999" points="229.1,-568.18 225.6,-558.18 222.1,-568.18 229.1,-568.18"/>
<text text-anchor="middle" x="229.1" y="-579.8" font-family="Times New Roman,serif" font-size="14.00">1</text>
</g>
<!-- 4 -->
<g id="node5" class="node">
<title>4</title>
<ellipse fill="none" stroke="black" cx="28.6" cy="-453" rx="28.7" ry="18"/>
<text text-anchor="middle" x="28.6" y="-449.3" font-family="Times New Roman,serif" font-size="14.00">1516</text>
</g>
<!-- 3&#45;&gt;4 -->
<g id="edge4" class="edge">
<title>3&#45;&gt;4</title>
<path fill="none" stroke="#999999" d="M90.53,-524.19C79.06,-511.19 62.18,-492.06 48.94,-477.06"/>
<polygon fill="#999999" stroke="#999999" points="51.26,-474.39 42.02,-469.21 46.01,-479.02 51.26,-474.39"/>
<text text-anchor="middle" x="74.1" y="-492.8" font-family="Times New Roman,serif" font-size="14.00">0</text>
</g>
<!-- 5 -->
<g id="node6" class="node">
<title>5</title>
<ellipse fill="none" stroke="black" cx="103.6" cy="-453" rx="28.7" ry="18"/>
<text text-anchor="middle" x="103.6" y="-449.3" font-family="Times New Roman,serif" font-size="14.00">1555</text>
</g>
<!-- 3&#45;&gt;5 -->
<g id="edge5" class="edge">
<title>3&#45;&gt;5</title>
<path fill="none" stroke="#999999" d="M103.6,-521.8C103.6,-510.16 103.6,-494.55 103.6,-481.24"/>
<polygon fill="#999999" stroke="#999999" points="107.1,-481.18 103.6,-471.18 100.1,-481.18 107.1,-481.18"/>
<text text-anchor="middle" x="107.1" y="-492.8" font-family="Times New Roman,serif" font-size="14.00">1</text>
</g>
<!-- 7 -->
<g id="node8" class="node">
<title>7</title>
<ellipse fill="none" stroke="black" cx="177.6" cy="-453" rx="27" ry="18"/>
</g>
<!-- 6&#45;&gt;7 -->
<g id="edge7" class="edge">
<title>6&#45;&gt;7</title>
<path fill="none" stroke="#999999" d="M216.57,-523.01C209.57,-510.63 199.75,-493.23 191.72,-479.01"/>
<polygon fill="#999999" stroke="#999999" points="194.71,-477.19 186.75,-470.21 188.62,-480.63 194.71,-477.19"/>
<text text-anchor="middle" x="208.1" y="-492.8" font-family="Times New Roman,serif" font-size="14.00">0</text>
</g>
<!-- 10 -->
<g id="node11" class="node">
<title>10</title>
<ellipse fill="none" stroke="black" cx="251.6" cy="-453" rx="28.7" ry="18"/>
<text text-anchor="middle" x="251.6" y="-449.3" font-family="Times New Roman,serif" font-size="14.00">1585</text>
</g>
<!-- 6&#45;&gt;10 -->
<g id="edge10" class="edge">
<title>6&#45;&gt;10</title>
<path fill="none" stroke="#999999" d="M230.73,-522.21C234.37,-510.33 239.31,-494.17 243.47,-480.56"/>
<polygon fill="#999999" stroke="#999999" points="246.89,-481.34 246.47,-470.76 240.2,-479.3 246.89,-481.34"/>
<text text-anchor="middle" x="244.1" y="-492.8" font-family="Times New Roman,serif" font-size="14.00">1</text>
</g>
<!-- 8 -->
<g id="node9" class="node">
<title>8</title>
<ellipse fill="none" stroke="black" cx="126.6" cy="-366" rx="27" ry="18"/>
<text text-anchor="middle" x="126.6" y="-362.3" font-family="Times New Roman,serif" font-size="14.00">777</text>
</g>
<!-- 7&#45;&gt;8 -->
<g id="edge8" class="edge">
<title>7&#45;&gt;8</title>
<path fill="none" stroke="#999999" d="M168,-436.01C160.53,-423.55 150.01,-406.01 141.44,-391.74"/>
<polygon fill="#999999" stroke="#999999" points="144.29,-389.69 136.15,-382.92 138.29,-393.29 144.29,-389.69"/>
<text text-anchor="middle" x="159.1" y="-405.8" font-family="Times New Roman,serif" font-size="14.00">0</text>
</g>
<!-- 9 -->
<g id="node10" class="node">
<title>9</title>
<ellipse fill="none" stroke="black" cx="198.6" cy="-366" rx="27" ry="18"/>
<text text-anchor="middle" x="198.6" y="-362.3" font-family="Times New Roman,serif" font-size="14.00">788</text>
</g>
<!-- 7&#45;&gt;9 -->
<g id="edge9" class="edge">
<title>7&#45;&gt;9</title>
<path fill="none" stroke="#999999" d="M181.75,-435.21C184.66,-423.41 188.62,-407.38 191.97,-393.82"/>
<polygon fill="#999999" stroke="#999999" points="195.38,-394.6 194.39,-384.05 188.59,-392.92 195.38,-394.6"/>
<text text-anchor="middle" x="193.1" y="-405.8" font-family="Times New Roman,serif" font-size="14.00">1</text>
</g>
<!-- 12 -->
<g id="node13" class="node">
<title>12</title>
<ellipse fill="none" stroke="black" cx="400.6" cy="-540" rx="27" ry="18"/>
</g>
<!-- 11&#45;&gt;12 -->
<g id="edge12" class="edge">
<title>11&#45;&gt;12</title>
<path fill="none" stroke="#999999" d="M460.55,-610.8C449.34,-597.75 433.01,-578.74 420.22,-563.85"/>
<polygon fill="#999999" stroke="#999999" points="422.71,-561.37 413.54,-556.06 417.4,-565.93 422.71,-561.37"/>
<text text-anchor="middle" x="445.1" y="-579.8" font-family="Times New Roman,serif" font-size="14.00">0</text>
</g>
<!-- 25 -->
<g id="node26" class="node">
<title>25</title>
<ellipse fill="none" stroke="black" cx="508.6" cy="-540" rx="27" ry="18"/>
</g>
<!-- 11&#45;&gt;25 -->
<g id="edge25" class="edge">
<title>11&#45;&gt;25</title>
<path fill="none" stroke="#999999" d="M480.51,-609.21C485.48,-597.14 492.28,-580.64 497.94,-566.89"/>
<polygon fill="#999999" stroke="#999999" points="501.24,-568.05 501.82,-557.47 494.77,-565.38 501.24,-568.05"/>
<text text-anchor="middle" x="497.1" y="-579.8" font-family="Times New Roman,serif" font-size="14.00">1</text>
</g>
<!-- 13 -->
<g id="node14" class="node">
<title>13</title>
<ellipse fill="none" stroke="black" cx="326.6" cy="-453" rx="28.7" ry="18"/>
<text text-anchor="middle" x="326.6" y="-449.3" font-family="Times New Roman,serif" font-size="14.00">1586</text>
</g>
<!-- 12&#45;&gt;13 -->
<g id="edge13" class="edge">
<title>12&#45;&gt;13</title>
<path fill="none" stroke="#999999" d="M387.37,-523.8C376,-510.75 359.45,-491.74 346.49,-476.85"/>
<polygon fill="#999999" stroke="#999999" points="348.92,-474.31 339.71,-469.06 343.64,-478.91 348.92,-474.31"/>
<text text-anchor="middle" x="372.1" y="-492.8" font-family="Times New Roman,serif" font-size="14.00">0</text>
</g>
<!-- 14 -->
<g id="node15" class="node">
<title>14</title>
<ellipse fill="none" stroke="black" cx="400.6" cy="-453" rx="27" ry="18"/>
</g>
<!-- 12&#45;&gt;14 -->
<g id="edge14" class="edge">
<title>12&#45;&gt;14</title>
<path fill="none" stroke="#999999" d="M400.6,-521.8C400.6,-510.16 400.6,-494.55 400.6,-481.24"/>
<polygon fill="#999999" stroke="#999999" points="404.1,-481.18 400.6,-471.18 397.1,-481.18 404.1,-481.18"/>
<text text-anchor="middle" x="404.1" y="-492.8" font-family="Times New Roman,serif" font-size="14.00">1</text>
</g>
<!-- 15 -->
<g id="node16" class="node">
<title>15</title>
<ellipse fill="none" stroke="black" cx="310.6" cy="-366" rx="27" ry="18"/>
</g>
<!-- 14&#45;&gt;15 -->
<g id="edge15" class="edge">
<title>14&#45;&gt;15</title>
<path fill="none" stroke="#999999" d="M385.74,-437.96C371.41,-424.43 349.53,-403.77 333.07,-388.22"/>
<polygon fill="#999999" stroke="#999999" points="335.15,-385.38 325.48,-381.06 330.35,-390.47 335.15,-385.38"/>
<text text-anchor="middle" x="365.1" y="-405.8" font-family="Times New Roman,serif" font-size="14.00">0</text>
</g>
<!-- 24 -->
<g id="node25" class="node">
<title>24</title>
<ellipse fill="none" stroke="black" cx="382.6" cy="-366" rx="27" ry="18"/>
<text text-anchor="middle" x="382.6" y="-362.3" font-family="Times New Roman,serif" font-size="14.00">805</text>
</g>
<!-- 14&#45;&gt;24 -->
<g id="edge24" class="edge">
<title>14&#45;&gt;24</title>
<path fill="none" stroke="#999999" d="M396.95,-434.8C394.47,-423.09 391.14,-407.34 388.31,-393.97"/>
<polygon fill="#999999" stroke="#999999" points="391.67,-392.94 386.17,-383.89 384.82,-394.39 391.67,-392.94"/>
<text text-anchor="middle" x="397.1" y="-405.8" font-family="Times New Roman,serif" font-size="14.00">1</text>
</g>
<!-- 16 -->
<g id="node17" class="node">
<title>16</title>
<ellipse fill="none" stroke="black" cx="264.6" cy="-279" rx="27" ry="18"/>
</g>
<!-- 15&#45;&gt;16 -->
<g id="edge16" class="edge">
<title>15&#45;&gt;16</title>
<path fill="none" stroke="#999999" d="M301.73,-348.61C295.07,-336.3 285.83,-319.23 278.23,-305.19"/>
<polygon fill="#999999" stroke="#999999" points="281.12,-303.18 273.28,-296.05 274.96,-306.51 281.12,-303.18"/>
<text text-anchor="middle" x="294.1" y="-318.8" font-family="Times New Roman,serif" font-size="14.00">0</text>
</g>
<!-- 23 -->
<g id="node24" class="node">
<title>23</title>
<ellipse fill="none" stroke="black" cx="336.6" cy="-279" rx="27" ry="18"/>
<text text-anchor="middle" x="336.6" y="-275.3" font-family="Times New Roman,serif" font-size="14.00">412</text>
</g>
<!-- 15&#45;&gt;23 -->
<g id="edge23" class="edge">
<title>15&#45;&gt;23</title>
<path fill="none" stroke="#999999" d="M315.73,-348.21C319.37,-336.33 324.31,-320.17 328.47,-306.56"/>
<polygon fill="#999999" stroke="#999999" points="331.89,-307.34 331.47,-296.76 325.2,-305.3 331.89,-307.34"/>
<text text-anchor="middle" x="329.1" y="-318.8" font-family="Times New Roman,serif" font-size="14.00">1</text>
</g>
<!-- 17 -->
<g id="node18" class="node">
<title>17</title>
<ellipse fill="none" stroke="black" cx="218.6" cy="-192" rx="27" ry="18"/>
</g>
<!-- 16&#45;&gt;17 -->
<g id="edge17" class="edge">
<title>16&#45;&gt;17</title>
<path fill="none" stroke="#999999" d="M255.73,-261.61C249.07,-249.3 239.83,-232.23 232.23,-218.19"/>
<polygon fill="#999999" stroke="#999999" points="235.12,-216.18 227.28,-209.05 228.96,-219.51 235.12,-216.18"/>
<text text-anchor="middle" x="248.1" y="-231.8" font-family="Times New Roman,serif" font-size="14.00">0</text>
</g>
<!-- 22 -->
<g id="node23" class="node">
<title>22</title>
<ellipse fill="none" stroke="black" cx="290.6" cy="-192" rx="27" ry="18"/>
<text text-anchor="middle" x="290.6" y="-188.3" font-family="Times New Roman,serif" font-size="14.00">221</text>
</g>
<!-- 16&#45;&gt;22 -->
<g id="edge22" class="edge">
<title>16&#45;&gt;22</title>
<path fill="none" stroke="#999999" d="M269.73,-261.21C273.37,-249.33 278.31,-233.17 282.47,-219.56"/>
<polygon fill="#999999" stroke="#999999" points="285.89,-220.34 285.47,-209.76 279.2,-218.3 285.89,-220.34"/>
<text text-anchor="middle" x="283.1" y="-231.8" font-family="Times New Roman,serif" font-size="14.00">1</text>
</g>
<!-- 18 -->
<g id="node19" class="node">
<title>18</title>
<ellipse fill="none" stroke="black" cx="182.6" cy="-105" rx="27" ry="18"/>
<text text-anchor="middle" x="182.6" y="-101.3" font-family="Times New Roman,serif" font-size="14.00">78</text>
</g>
<!-- 17&#45;&gt;18 -->
<g id="edge18" class="edge">
<title>17&#45;&gt;18</title>
<path fill="none" stroke="#999999" d="M211.49,-174.21C206.37,-162.14 199.39,-145.64 193.56,-131.89"/>
<polygon fill="#999999" stroke="#999999" points="196.7,-130.31 189.57,-122.47 190.25,-133.04 196.7,-130.31"/>
<text text-anchor="middle" x="207.1" y="-144.8" font-family="Times New Roman,serif" font-size="14.00">0</text>
</g>
<!-- 19 -->
<g id="node20" class="node">
<title>19</title>
<ellipse fill="none" stroke="black" cx="254.6" cy="-105" rx="27" ry="18"/>
</g>
<!-- 17&#45;&gt;19 -->
<g id="edge19" class="edge">
<title>17&#45;&gt;19</title>
<path fill="none" stroke="#999999" d="M225.71,-174.21C230.82,-162.14 237.81,-145.64 243.63,-131.89"/>
<polygon fill="#999999" stroke="#999999" points="246.95,-133.04 247.62,-122.47 240.5,-130.31 246.95,-133.04"/>
<text text-anchor="middle" x="243.1" y="-144.8" font-family="Times New Roman,serif" font-size="14.00">1</text>
</g>
<!-- 20 -->
<g id="node21" class="node">
<title>20</title>
<ellipse fill="none" stroke="black" cx="218.6" cy="-18" rx="27" ry="18"/>
<text text-anchor="middle" x="218.6" y="-14.3" font-family="Times New Roman,serif" font-size="14.00">40</text>
</g>
<!-- 19&#45;&gt;20 -->
<g id="edge20" class="edge">
<title>19&#45;&gt;20</title>
<path fill="none" stroke="#999999" d="M247.49,-87.21C242.37,-75.14 235.39,-58.64 229.56,-44.89"/>
<polygon fill="#999999" stroke="#999999" points="232.7,-43.31 225.57,-35.47 226.25,-46.04 232.7,-43.31"/>
<text text-anchor="middle" x="243.1" y="-57.8" font-family="Times New Roman,serif" font-size="14.00">0</text>
</g>
<!-- 21 -->
<g id="node22" class="node">
<title>21</title>
<ellipse fill="none" stroke="black" cx="290.6" cy="-18" rx="27" ry="18"/>
<text text-anchor="middle" x="290.6" y="-14.3" font-family="Times New Roman,serif" font-size="14.00">52</text>
</g>
<!-- 19&#45;&gt;21 -->
<g id="edge21" class="edge">
<title>19&#45;&gt;21</title>
<path fill="none" stroke="#999999" d="M261.71,-87.21C266.82,-75.14 273.81,-58.64 279.63,-44.89"/>
<polygon fill="#999999" stroke="#999999" points="282.95,-46.04 283.62,-35.47 276.5,-43.31 282.95,-46.04"/>
<text text-anchor="middle" x="279.1" y="-57.8" font-family="Times New Roman,serif" font-size="14.00">1</text>
</g>
<!-- 26 -->
<g id="node27" class="node">
<title>26</title>
<ellipse fill="none" stroke="black" cx="508.6" cy="-453" rx="27" ry="18"/>
</g>
<!-- 25&#45;&gt;26 -->
<g id="edge26" class="edge">
<title>25&#45;&gt;26</title>
<path fill="none" stroke="#999999" d="M508.6,-521.8C508.6,-510.16 508.6,-494.55 508.6,-481.24"/>
<polygon fill="#999999" stroke="#999999" points="512.1,-481.18 508.6,-471.18 505.1,-481.18 512.1,-481.18"/>
<text text-anchor="middle" x="512.1" y="-492.8" font-family="Times New Roman,serif" font-size="14.00">0</text>
</g>
<!-- 29 -->
<g id="node30" class="node">
<title>29</title>
<ellipse fill="none" stroke="black" cx="598.6" cy="-453" rx="27" ry="18"/>
</g>
<!-- 25&#45;&gt;29 -->
<g id="edge29" class="edge">
<title>25&#45;&gt;29</title>
<path fill="none" stroke="#999999" d="M523.46,-524.96C537.79,-511.43 559.67,-490.77 576.13,-475.22"/>
<polygon fill="#999999" stroke="#999999" points="578.85,-477.47 583.71,-468.06 574.04,-472.38 578.85,-477.47"/>
<text text-anchor="middle" x="563.1" y="-492.8" font-family="Times New Roman,serif" font-size="14.00">1</text>
</g>
<!-- 27 -->
<g id="node28" class="node">
<title>27</title>
<ellipse fill="none" stroke="black" cx="454.6" cy="-366" rx="27" ry="18"/>
<text text-anchor="middle" x="454.6" y="-362.3" font-family="Times New Roman,serif" font-size="14.00">837</text>
</g>
<!-- 26&#45;&gt;27 -->
<g id="edge27" class="edge">
<title>26&#45;&gt;27</title>
<path fill="none" stroke="#999999" d="M498.44,-436.01C490.52,-423.55 479.38,-406.01 470.31,-391.74"/>
<polygon fill="#999999" stroke="#999999" points="473.03,-389.48 464.71,-382.92 467.12,-393.23 473.03,-389.48"/>
<text text-anchor="middle" x="489.1" y="-405.8" font-family="Times New Roman,serif" font-size="14.00">0</text>
</g>
<!-- 28 -->
<g id="node29" class="node">
<title>28</title>
<ellipse fill="none" stroke="black" cx="526.6" cy="-366" rx="27" ry="18"/>
<text text-anchor="middle" x="526.6" y="-362.3" font-family="Times New Roman,serif" font-size="14.00">841</text>
</g>
<!-- 26&#45;&gt;28 -->
<g id="edge28" class="edge">
<title>26&#45;&gt;28</title>
<path fill="none" stroke="#999999" d="M512.24,-434.8C514.72,-423.09 518.05,-407.34 520.89,-393.97"/>
<polygon fill="#999999" stroke="#999999" points="524.37,-394.39 523.02,-383.89 517.53,-392.94 524.37,-394.39"/>
<text text-anchor="middle" x="523.1" y="-405.8" font-family="Times New Roman,serif" font-size="14.00">1</text>
</g>
<!-- 30 -->
<g id="node31" class="node">
<title>30</title>
<ellipse fill="none" stroke="black" cx="598.6" cy="-366" rx="27" ry="18"/>
</g>
<!-- 29&#45;&gt;30 -->
<g id="edge30" class="edge">
<title>29&#45;&gt;30</title>
<path fill="none" stroke="#999999" d="M598.6,-434.8C598.6,-423.16 598.6,-407.55 598.6,-394.24"/>
<polygon fill="#999999" stroke="#999999" points="602.1,-394.18 598.6,-384.18 595.1,-394.18 602.1,-394.18"/>
<text text-anchor="middle" x="602.1" y="-405.8" font-family="Times New Roman,serif" font-size="14.00">0</text>
</g>
<!-- 33 -->
<g id="node34" class="node">
<title>33</title>
<ellipse fill="none" stroke="black" cx="670.6" cy="-366" rx="27" ry="18"/>
<text text-anchor="middle" x="670.6" y="-362.3" font-family="Times New Roman,serif" font-size="14.00">944</text>
</g>
<!-- 29&#45;&gt;33 -->
<g id="edge33" class="edge">
<title>29&#45;&gt;33</title>
<path fill="none" stroke="#999999" d="M611.47,-436.8C622.53,-423.75 638.63,-404.74 651.24,-389.85"/>
<polygon fill="#999999" stroke="#999999" points="654.04,-391.96 657.84,-382.06 648.7,-387.43 654.04,-391.96"/>
<text text-anchor="middle" x="643.1" y="-405.8" font-family="Times New Roman,serif" font-size="14.00">1</text>
</g>
<!-- 31 -->
<g id="node32" class="node">
<title>31</title>
<ellipse fill="none" stroke="black" cx="526.6" cy="-279" rx="27" ry="18"/>
<text text-anchor="middle" x="526.6" y="-275.3" font-family="Times New Roman,serif" font-size="14.00">432</text>
</g>
<!-- 30&#45;&gt;31 -->
<g id="edge31" class="edge">
<title>30&#45;&gt;31</title>
<path fill="none" stroke="#999999" d="M585.73,-349.8C574.67,-336.75 558.56,-317.74 545.95,-302.85"/>
<polygon fill="#999999" stroke="#999999" points="548.49,-300.43 539.36,-295.06 543.15,-304.96 548.49,-300.43"/>
<text text-anchor="middle" x="571.1" y="-318.8" font-family="Times New Roman,serif" font-size="14.00">0</text>
</g>
<!-- 32 -->
<g id="node33" class="node">
<title>32</title>
<ellipse fill="none" stroke="black" cx="598.6" cy="-279" rx="27" ry="18"/>
<text text-anchor="middle" x="598.6" y="-275.3" font-family="Times New Roman,serif" font-size="14.00">450</text>
</g>
<!-- 30&#45;&gt;32 -->
<g id="edge32" class="edge">
<title>30&#45;&gt;32</title>
<path fill="none" stroke="#999999" d="M598.6,-347.8C598.6,-336.16 598.6,-320.55 598.6,-307.24"/>
<polygon fill="#999999" stroke="#999999" points="602.1,-307.18 598.6,-297.18 595.1,-307.18 602.1,-307.18"/>
<text text-anchor="middle" x="602.1" y="-318.8" font-family="Times New Roman,serif" font-size="14.00">1</text>
</g>
<!-- 35 -->
<g id="node36" class="node">
<title>35</title>
<ellipse fill="none" stroke="black" cx="999.6" cy="-627" rx="27" ry="18"/>
</g>
<!-- 34&#45;&gt;35 -->
<g id="edge35" class="edge">
<title>34&#45;&gt;35</title>
<path fill="none" stroke="#999999" d="M999.6,-695.8C999.6,-684.16 999.6,-668.55 999.6,-655.24"/>
<polygon fill="#999999" stroke="#999999" points="1003.1,-655.18 999.6,-645.18 996.1,-655.18 1003.1,-655.18"/>
<text text-anchor="middle" x="1003.1" y="-666.8" font-family="Times New Roman,serif" font-size="14.00">0</text>
</g>
<!-- 60 -->
<g id="node61" class="node">
<title>60</title>
<ellipse fill="none" stroke="black" cx="1438.6" cy="-627" rx="27" ry="18"/>
</g>
<!-- 34&#45;&gt;60 -->
<g id="edge60" class="edge">
<title>34&#45;&gt;60</title>
<path fill="none" stroke="#999999" d="M1025.1,-708.06C1099.58,-693.64 1316.96,-651.55 1402.97,-634.9"/>
<polygon fill="#999999" stroke="#999999" points="1403.87,-638.29 1413.03,-632.95 1402.54,-631.42 1403.87,-638.29"/>
<text text-anchor="middle" x="1249.1" y="-666.8" font-family="Times New Roman,serif" font-size="14.00">1</text>
</g>
<!-- 36 -->
<g id="node37" class="node">
<title>36</title>
<ellipse fill="none" stroke="black" cx="933.6" cy="-540" rx="27" ry="18"/>
</g>
<!-- 35&#45;&gt;36 -->
<g id="edge36" class="edge">
<title>35&#45;&gt;36</title>
<path fill="none" stroke="#999999" d="M987.8,-610.8C977.82,-597.95 963.35,-579.32 951.87,-564.54"/>
<polygon fill="#999999" stroke="#999999" points="954.41,-562.1 945.52,-556.35 948.89,-566.4 954.41,-562.1"/>
<text text-anchor="middle" x="974.1" y="-579.8" font-family="Times New Roman,serif" font-size="14.00">0</text>
</g>
<!-- 51 -->
<g id="node52" class="node">
<title>51</title>
<ellipse fill="none" stroke="black" cx="1085.6" cy="-540" rx="27" ry="18"/>
</g>
<!-- 35&#45;&gt;51 -->
<g id="edge51" class="edge">
<title>35&#45;&gt;51</title>
<path fill="none" stroke="#999999" d="M1014.19,-611.58C1027.78,-598.15 1048.22,-577.94 1063.76,-562.59"/>
<polygon fill="#999999" stroke="#999999" points="1066.29,-565.01 1070.94,-555.49 1061.36,-560.03 1066.29,-565.01"/>
<text text-anchor="middle" x="1052.1" y="-579.8" font-family="Times New Roman,serif" font-size="14.00">1</text>
</g>
<!-- 37 -->
<g id="node38" class="node">
<title>37</title>
<ellipse fill="none" stroke="black" cx="814.6" cy="-453" rx="27" ry="18"/>
</g>
<!-- 36&#45;&gt;37 -->
<g id="edge37" class="edge">
<title>36&#45;&gt;37</title>
<path fill="none" stroke="#999999" d="M915.78,-526.27C895.89,-512.07 863.5,-488.93 840.74,-472.67"/>
<polygon fill="#999999" stroke="#999999" points="842.71,-469.78 832.53,-466.81 838.64,-475.47 842.71,-469.78"/>
<text text-anchor="middle" x="885.1" y="-492.8" font-family="Times New Roman,serif" font-size="14.00">0</text>
</g>
<!-- 48 -->
<g id="node49" class="node">
<title>48</title>
<ellipse fill="none" stroke="black" cx="933.6" cy="-453" rx="27" ry="18"/>
</g>
<!-- 36&#45;&gt;48 -->
<g id="edge48" class="edge">
<title>36&#45;&gt;48</title>
<path fill="none" stroke="#999999" d="M933.6,-521.8C933.6,-510.16 933.6,-494.55 933.6,-481.24"/>
<polygon fill="#999999" stroke="#999999" points="937.1,-481.18 933.6,-471.18 930.1,-481.18 937.1,-481.18"/>
<text text-anchor="middle" x="937.1" y="-492.8" font-family="Times New Roman,serif" font-size="14.00">1</text>
</g>
<!-- 38 -->
<g id="node39" class="node">
<title>38</title>
<ellipse fill="none" stroke="black" cx="742.6" cy="-366" rx="27" ry="18"/>
</g>
<!-- 37&#45;&gt;38 -->
<g id="edge38" class="edge">
<title>37&#45;&gt;38</title>
<path fill="none" stroke="#999999" d="M801.73,-436.8C790.67,-423.75 774.56,-404.74 761.95,-389.85"/>
<polygon fill="#999999" stroke="#999999" points="764.49,-387.43 755.36,-382.06 759.15,-391.96 764.49,-387.43"/>
<text text-anchor="middle" x="787.1" y="-405.8" font-family="Times New Roman,serif" font-size="14.00">0</text>
</g>
<!-- 41 -->
<g id="node42" class="node">
<title>41</title>
<ellipse fill="none" stroke="black" cx="814.6" cy="-366" rx="27" ry="18"/>
</g>
<!-- 37&#45;&gt;41 -->
<g id="edge41" class="edge">
<title>37&#45;&gt;41</title>
<path fill="none" stroke="#999999" d="M814.6,-434.8C814.6,-423.16 814.6,-407.55 814.6,-394.24"/>
<polygon fill="#999999" stroke="#999999" points="818.1,-394.18 814.6,-384.18 811.1,-394.18 818.1,-394.18"/>
<text text-anchor="middle" x="818.1" y="-405.8" font-family="Times New Roman,serif" font-size="14.00">1</text>
</g>
<!-- 39 -->
<g id="node40" class="node">
<title>39</title>
<ellipse fill="none" stroke="black" cx="670.6" cy="-279" rx="27" ry="18"/>
<text text-anchor="middle" x="670.6" y="-275.3" font-family="Times New Roman,serif" font-size="14.00">470</text>
</g>
<!-- 38&#45;&gt;39 -->
<g id="edge39" class="edge">
<title>38&#45;&gt;39</title>
<path fill="none" stroke="#999999" d="M729.73,-349.8C718.67,-336.75 702.56,-317.74 689.95,-302.85"/>
<polygon fill="#999999" stroke="#999999" points="692.49,-300.43 683.36,-295.06 687.15,-304.96 692.49,-300.43"/>
<text text-anchor="middle" x="715.1" y="-318.8" font-family="Times New Roman,serif" font-size="14.00">0</text>
</g>
<!-- 40 -->
<g id="node41" class="node">
<title>40</title>
<ellipse fill="none" stroke="black" cx="742.6" cy="-279" rx="27" ry="18"/>
<text text-anchor="middle" x="742.6" y="-275.3" font-family="Times New Roman,serif" font-size="14.00">492</text>
</g>
<!-- 38&#45;&gt;40 -->
<g id="edge40" class="edge">
<title>38&#45;&gt;40</title>
<path fill="none" stroke="#999999" d="M742.6,-347.8C742.6,-336.16 742.6,-320.55 742.6,-307.24"/>
<polygon fill="#999999" stroke="#999999" points="746.1,-307.18 742.6,-297.18 739.1,-307.18 746.1,-307.18"/>
<text text-anchor="middle" x="746.1" y="-318.8" font-family="Times New Roman,serif" font-size="14.00">1</text>
</g>
<!-- 42 -->
<g id="node43" class="node">
<title>42</title>
<ellipse fill="none" stroke="black" cx="814.6" cy="-279" rx="27" ry="18"/>
</g>
<!-- 41&#45;&gt;42 -->
<g id="edge42" class="edge">
<title>41&#45;&gt;42</title>
<path fill="none" stroke="#999999" d="M814.6,-347.8C814.6,-336.16 814.6,-320.55 814.6,-307.24"/>
<polygon fill="#999999" stroke="#999999" points="818.1,-307.18 814.6,-297.18 811.1,-307.18 818.1,-307.18"/>
<text text-anchor="middle" x="818.1" y="-318.8" font-family="Times New Roman,serif" font-size="14.00">0</text>
</g>
<!-- 47 -->
<g id="node48" class="node">
<title>47</title>
<ellipse fill="none" stroke="black" cx="886.6" cy="-279" rx="27" ry="18"/>
<text text-anchor="middle" x="886.6" y="-275.3" font-family="Times New Roman,serif" font-size="14.00">512</text>
</g>
<!-- 41&#45;&gt;47 -->
<g id="edge47" class="edge">
<title>41&#45;&gt;47</title>
<path fill="none" stroke="#999999" d="M827.47,-349.8C838.53,-336.75 854.63,-317.74 867.24,-302.85"/>
<polygon fill="#999999" stroke="#999999" points="870.04,-304.96 873.84,-295.06 864.7,-300.43 870.04,-304.96"/>
<text text-anchor="middle" x="859.1" y="-318.8" font-family="Times New Roman,serif" font-size="14.00">1</text>
</g>
<!-- 43 -->
<g id="node44" class="node">
<title>43</title>
<ellipse fill="none" stroke="black" cx="778.6" cy="-192" rx="27" ry="18"/>
</g>
<!-- 42&#45;&gt;43 -->
<g id="edge43" class="edge">
<title>42&#45;&gt;43</title>
<path fill="none" stroke="#999999" d="M807.49,-261.21C802.37,-249.14 795.39,-232.64 789.56,-218.89"/>
<polygon fill="#999999" stroke="#999999" points="792.7,-217.31 785.57,-209.47 786.25,-220.04 792.7,-217.31"/>
<text text-anchor="middle" x="803.1" y="-231.8" font-family="Times New Roman,serif" font-size="14.00">0</text>
</g>
<!-- 46 -->
<g id="node47" class="node">
<title>46</title>
<ellipse fill="none" stroke="black" cx="850.6" cy="-192" rx="27" ry="18"/>
<text text-anchor="middle" x="850.6" y="-188.3" font-family="Times New Roman,serif" font-size="14.00">270</text>
</g>
<!-- 42&#45;&gt;46 -->
<g id="edge46" class="edge">
<title>42&#45;&gt;46</title>
<path fill="none" stroke="#999999" d="M821.71,-261.21C826.82,-249.14 833.81,-232.64 839.63,-218.89"/>
<polygon fill="#999999" stroke="#999999" points="842.95,-220.04 843.62,-209.47 836.5,-217.31 842.95,-220.04"/>
<text text-anchor="middle" x="839.1" y="-231.8" font-family="Times New Roman,serif" font-size="14.00">1</text>
</g>
<!-- 44 -->
<g id="node45" class="node">
<title>44</title>
<ellipse fill="none" stroke="black" cx="742.6" cy="-105" rx="27" ry="18"/>
<text text-anchor="middle" x="742.6" y="-101.3" font-family="Times New Roman,serif" font-size="14.00">107</text>
</g>
<!-- 43&#45;&gt;44 -->
<g id="edge44" class="edge">
<title>43&#45;&gt;44</title>
<path fill="none" stroke="#999999" d="M771.49,-174.21C766.37,-162.14 759.39,-145.64 753.56,-131.89"/>
<polygon fill="#999999" stroke="#999999" points="756.7,-130.31 749.57,-122.47 750.25,-133.04 756.7,-130.31"/>
<text text-anchor="middle" x="767.1" y="-144.8" font-family="Times New Roman,serif" font-size="14.00">0</text>
</g>
<!-- 45 -->
<g id="node46" class="node">
<title>45</title>
<ellipse fill="none" stroke="black" cx="814.6" cy="-105" rx="27" ry="18"/>
<text text-anchor="middle" x="814.6" y="-101.3" font-family="Times New Roman,serif" font-size="14.00">118</text>
</g>
<!-- 43&#45;&gt;45 -->
<g id="edge45" class="edge">
<title>43&#45;&gt;45</title>
<path fill="none" stroke="#999999" d="M785.71,-174.21C790.82,-162.14 797.81,-145.64 803.63,-131.89"/>
<polygon fill="#999999" stroke="#999999" points="806.95,-133.04 807.62,-122.47 800.5,-130.31 806.95,-133.04"/>
<text text-anchor="middle" x="803.1" y="-144.8" font-family="Times New Roman,serif" font-size="14.00">1</text>
</g>
<!-- 49 -->
<g id="node50" class="node">
<title>49</title>
<ellipse fill="none" stroke="black" cx="888.6" cy="-366" rx="28.7" ry="18"/>
<text text-anchor="middle" x="888.6" y="-362.3" font-family="Times New Roman,serif" font-size="14.00">1014</text>
</g>
<!-- 48&#45;&gt;49 -->
<g id="edge49" class="edge">
<title>48&#45;&gt;49</title>
<path fill="none" stroke="#999999" d="M924.92,-435.61C918.45,-423.38 909.48,-406.44 902.07,-392.46"/>
<polygon fill="#999999" stroke="#999999" points="905.02,-390.54 897.25,-383.34 898.83,-393.81 905.02,-390.54"/>
<text text-anchor="middle" x="918.1" y="-405.8" font-family="Times New Roman,serif" font-size="14.00">0</text>
</g>
<!-- 50 -->
<g id="node51" class="node">
<title>50</title>
<ellipse fill="none" stroke="black" cx="963.6" cy="-366" rx="28.7" ry="18"/>
<text text-anchor="middle" x="963.6" y="-362.3" font-family="Times New Roman,serif" font-size="14.00">1015</text>
</g>
<!-- 48&#45;&gt;50 -->
<g id="edge50" class="edge">
<title>48&#45;&gt;50</title>
<path fill="none" stroke="#999999" d="M939.52,-435.21C943.72,-423.33 949.42,-407.17 954.22,-393.56"/>
<polygon fill="#999999" stroke="#999999" points="957.65,-394.35 957.68,-383.76 951.05,-392.02 957.65,-394.35"/>
<text text-anchor="middle" x="954.1" y="-405.8" font-family="Times New Roman,serif" font-size="14.00">1</text>
</g>
<!-- 52 -->
<g id="node53" class="node">
<title>52</title>
<ellipse fill="none" stroke="black" cx="1085.6" cy="-453" rx="27" ry="18"/>
</g>
<!-- 51&#45;&gt;52 -->
<g id="edge52" class="edge">
<title>51&#45;&gt;52</title>
<path fill="none" stroke="#999999" d="M1085.6,-521.8C1085.6,-510.16 1085.6,-494.55 1085.6,-481.24"/>
<polygon fill="#999999" stroke="#999999" points="1089.1,-481.18 1085.6,-471.18 1082.1,-481.18 1089.1,-481.18"/>
<text text-anchor="middle" x="1089.1" y="-492.8" font-family="Times New Roman,serif" font-size="14.00">0</text>
</g>
<!-- 57 -->
<g id="node58" class="node">
<title>57</title>
<ellipse fill="none" stroke="black" cx="1186.6" cy="-453" rx="27" ry="18"/>
</g>
<!-- 51&#45;&gt;57 -->
<g id="edge57" class="edge">
<title>51&#45;&gt;57</title>
<path fill="none" stroke="#999999" d="M1101.82,-525.34C1118.24,-511.53 1143.81,-490.01 1162.58,-474.21"/>
<polygon fill="#999999" stroke="#999999" points="1165.01,-476.74 1170.41,-467.62 1160.51,-471.38 1165.01,-476.74"/>
<text text-anchor="middle" x="1146.1" y="-492.8" font-family="Times New Roman,serif" font-size="14.00">1</text>
</g>
<!-- 53 -->
<g id="node54" class="node">
<title>53</title>
<ellipse fill="none" stroke="black" cx="1037.6" cy="-366" rx="27" ry="18"/>
</g>
<!-- 52&#45;&gt;53 -->
<g id="edge53" class="edge">
<title>52&#45;&gt;53</title>
<path fill="none" stroke="#999999" d="M1076.57,-436.01C1069.57,-423.63 1059.75,-406.23 1051.72,-392.01"/>
<polygon fill="#999999" stroke="#999999" points="1054.71,-390.19 1046.75,-383.21 1048.62,-393.63 1054.71,-390.19"/>
<text text-anchor="middle" x="1068.1" y="-405.8" font-family="Times New Roman,serif" font-size="14.00">0</text>
</g>
<!-- 56 -->
<g id="node57" class="node">
<title>56</title>
<ellipse fill="none" stroke="black" cx="1111.6" cy="-366" rx="28.7" ry="18"/>
<text text-anchor="middle" x="1111.6" y="-362.3" font-family="Times New Roman,serif" font-size="14.00">1050</text>
</g>
<!-- 52&#45;&gt;56 -->
<g id="edge56" class="edge">
<title>52&#45;&gt;56</title>
<path fill="none" stroke="#999999" d="M1090.73,-435.21C1094.37,-423.33 1099.31,-407.17 1103.47,-393.56"/>
<polygon fill="#999999" stroke="#999999" points="1106.89,-394.34 1106.47,-383.76 1100.2,-392.3 1106.89,-394.34"/>
<text text-anchor="middle" x="1104.1" y="-405.8" font-family="Times New Roman,serif" font-size="14.00">1</text>
</g>
<!-- 54 -->
<g id="node55" class="node">
<title>54</title>
<ellipse fill="none" stroke="black" cx="1001.6" cy="-279" rx="27" ry="18"/>
<text text-anchor="middle" x="1001.6" y="-275.3" font-family="Times New Roman,serif" font-size="14.00">515</text>
</g>
<!-- 53&#45;&gt;54 -->
<g id="edge54" class="edge">
<title>53&#45;&gt;54</title>
<path fill="none" stroke="#999999" d="M1030.49,-348.21C1025.37,-336.14 1018.39,-319.64 1012.56,-305.89"/>
<polygon fill="#999999" stroke="#999999" points="1015.7,-304.31 1008.57,-296.47 1009.25,-307.04 1015.7,-304.31"/>
<text text-anchor="middle" x="1026.1" y="-318.8" font-family="Times New Roman,serif" font-size="14.00">0</text>
</g>
<!-- 55 -->
<g id="node56" class="node">
<title>55</title>
<ellipse fill="none" stroke="black" cx="1073.6" cy="-279" rx="27" ry="18"/>
<text text-anchor="middle" x="1073.6" y="-275.3" font-family="Times New Roman,serif" font-size="14.00">519</text>
</g>
<!-- 53&#45;&gt;55 -->
<g id="edge55" class="edge">
<title>53&#45;&gt;55</title>
<path fill="none" stroke="#999999" d="M1044.71,-348.21C1049.82,-336.14 1056.81,-319.64 1062.63,-305.89"/>
<polygon fill="#999999" stroke="#999999" points="1065.95,-307.04 1066.62,-296.47 1059.5,-304.31 1065.95,-307.04"/>
<text text-anchor="middle" x="1062.1" y="-318.8" font-family="Times New Roman,serif" font-size="14.00">1</text>
</g>
<!-- 58 -->
<g id="node59" class="node">
<title>58</title>
<ellipse fill="none" stroke="black" cx="1186.6" cy="-366" rx="28.7" ry="18"/>
<text text-anchor="middle" x="1186.6" y="-362.3" font-family="Times New Roman,serif" font-size="14.00">1064</text>
</g>
<!-- 57&#45;&gt;58 -->
<g id="edge58" class="edge">
<title>57&#45;&gt;58</title>
<path fill="none" stroke="#999999" d="M1186.6,-434.8C1186.6,-423.16 1186.6,-407.55 1186.6,-394.24"/>
<polygon fill="#999999" stroke="#999999" points="1190.1,-394.18 1186.6,-384.18 1183.1,-394.18 1190.1,-394.18"/>
<text text-anchor="middle" x="1190.1" y="-405.8" font-family="Times New Roman,serif" font-size="14.00">0</text>
</g>
<!-- 59 -->
<g id="node60" class="node">
<title>59</title>
<ellipse fill="none" stroke="black" cx="1261.6" cy="-366" rx="28.7" ry="18"/>
<text text-anchor="middle" x="1261.6" y="-362.3" font-family="Times New Roman,serif" font-size="14.00">1074</text>
</g>
<!-- 57&#45;&gt;59 -->
<g id="edge59" class="edge">
<title>57&#45;&gt;59</title>
<path fill="none" stroke="#999999" d="M1199.66,-437.19C1211.13,-424.19 1228.01,-405.06 1241.25,-390.06"/>
<polygon fill="#999999" stroke="#999999" points="1244.19,-392.02 1248.18,-382.21 1238.94,-387.39 1244.19,-392.02"/>
<text text-anchor="middle" x="1232.1" y="-405.8" font-family="Times New Roman,serif" font-size="14.00">1</text>
</g>
<!-- 61 -->
<g id="node62" class="node">
<title>61</title>
<ellipse fill="none" stroke="black" cx="1438.6" cy="-540" rx="27" ry="18"/>
</g>
<!-- 60&#45;&gt;61 -->
<g id="edge61" class="edge">
<title>60&#45;&gt;61</title>
<path fill="none" stroke="#999999" d="M1438.6,-608.8C1438.6,-597.16 1438.6,-581.55 1438.6,-568.24"/>
<polygon fill="#999999" stroke="#999999" points="1442.1,-568.18 1438.6,-558.18 1435.1,-568.18 1442.1,-568.18"/>
<text text-anchor="middle" x="1442.1" y="-579.8" font-family="Times New Roman,serif" font-size="14.00">0</text>
</g>
<!-- 72 -->
<g id="node73" class="node">
<title>72</title>
<ellipse fill="none" stroke="black" cx="1664.6" cy="-540" rx="27" ry="18"/>
</g>
<!-- 60&#45;&gt;72 -->
<g id="edge72" class="edge">
<title>60&#45;&gt;72</title>
<path fill="none" stroke="#999999" d="M1461.51,-617.38C1501.87,-602.2 1585.72,-570.67 1632.06,-553.24"/>
<polygon fill="#999999" stroke="#999999" points="1633.5,-556.44 1641.62,-549.64 1631.03,-549.89 1633.5,-556.44"/>
<text text-anchor="middle" x="1569.1" y="-579.8" font-family="Times New Roman,serif" font-size="14.00">1</text>
</g>
<!-- 62 -->
<g id="node63" class="node">
<title>62</title>
<ellipse fill="none" stroke="black" cx="1411.6" cy="-453" rx="27" ry="18"/>
</g>
<!-- 61&#45;&gt;62 -->
<g id="edge62" class="edge">
<title>61&#45;&gt;62</title>
<path fill="none" stroke="#999999" d="M1433.26,-522.21C1429.49,-510.33 1424.36,-494.17 1420.03,-480.56"/>
<polygon fill="#999999" stroke="#999999" points="1423.28,-479.23 1416.92,-470.76 1416.61,-481.35 1423.28,-479.23"/>
<text text-anchor="middle" x="1431.1" y="-492.8" font-family="Times New Roman,serif" font-size="14.00">0</text>
</g>
<!-- 65 -->
<g id="node66" class="node">
<title>65</title>
<ellipse fill="none" stroke="black" cx="1486.6" cy="-453" rx="27" ry="18"/>
</g>
<!-- 61&#45;&gt;65 -->
<g id="edge65" class="edge">
<title>61&#45;&gt;65</title>
<path fill="none" stroke="#999999" d="M1447.63,-523.01C1454.62,-510.63 1464.44,-493.23 1472.47,-479.01"/>
<polygon fill="#999999" stroke="#999999" points="1475.58,-480.63 1477.45,-470.21 1469.48,-477.19 1475.58,-480.63"/>
<text text-anchor="middle" x="1469.1" y="-492.8" font-family="Times New Roman,serif" font-size="14.00">1</text>
</g>
<!-- 63 -->
<g id="node64" class="node">
<title>63</title>
<ellipse fill="none" stroke="black" cx="1336.6" cy="-366" rx="28.7" ry="18"/>
<text text-anchor="middle" x="1336.6" y="-362.3" font-family="Times New Roman,serif" font-size="14.00">1089</text>
</g>
<!-- 62&#45;&gt;63 -->
<g id="edge63" class="edge">
<title>62&#45;&gt;63</title>
<path fill="none" stroke="#999999" d="M1398.53,-437.19C1387.06,-424.19 1370.18,-405.06 1356.94,-390.06"/>
<polygon fill="#999999" stroke="#999999" points="1359.26,-387.39 1350.02,-382.21 1354.01,-392.02 1359.26,-387.39"/>
<text text-anchor="middle" x="1382.1" y="-405.8" font-family="Times New Roman,serif" font-size="14.00">0</text>
</g>
<!-- 64 -->
<g id="node65" class="node">
<title>64</title>
<ellipse fill="none" stroke="black" cx="1411.6" cy="-366" rx="28.7" ry="18"/>
<text text-anchor="middle" x="1411.6" y="-362.3" font-family="Times New Roman,serif" font-size="14.00">1130</text>
</g>
<!-- 62&#45;&gt;64 -->
<g id="edge64" class="edge">
<title>62&#45;&gt;64</title>
<path fill="none" stroke="#999999" d="M1411.6,-434.8C1411.6,-423.16 1411.6,-407.55 1411.6,-394.24"/>
<polygon fill="#999999" stroke="#999999" points="1415.1,-394.18 1411.6,-384.18 1408.1,-394.18 1415.1,-394.18"/>
<text text-anchor="middle" x="1415.1" y="-405.8" font-family="Times New Roman,serif" font-size="14.00">1</text>
</g>
<!-- 66 -->
<g id="node67" class="node">
<title>66</title>
<ellipse fill="none" stroke="black" cx="1486.6" cy="-366" rx="28.7" ry="18"/>
<text text-anchor="middle" x="1486.6" y="-362.3" font-family="Times New Roman,serif" font-size="14.00">1218</text>
</g>
<!-- 65&#45;&gt;66 -->
<g id="edge66" class="edge">
<title>65&#45;&gt;66</title>
<path fill="none" stroke="#999999" d="M1486.6,-434.8C1486.6,-423.16 1486.6,-407.55 1486.6,-394.24"/>
<polygon fill="#999999" stroke="#999999" points="1490.1,-394.18 1486.6,-384.18 1483.1,-394.18 1490.1,-394.18"/>
<text text-anchor="middle" x="1490.1" y="-405.8" font-family="Times New Roman,serif" font-size="14.00">0</text>
</g>
<!-- 67 -->
<g id="node68" class="node">
<title>67</title>
<ellipse fill="none" stroke="black" cx="1560.6" cy="-366" rx="27" ry="18"/>
</g>
<!-- 65&#45;&gt;67 -->
<g id="edge67" class="edge">
<title>65&#45;&gt;67</title>
<path fill="none" stroke="#999999" d="M1499.83,-436.8C1511.19,-423.75 1527.75,-404.74 1540.71,-389.85"/>
<polygon fill="#999999" stroke="#999999" points="1543.56,-391.91 1547.48,-382.06 1538.28,-387.31 1543.56,-391.91"/>
<text text-anchor="middle" x="1532.1" y="-405.8" font-family="Times New Roman,serif" font-size="14.00">1</text>
</g>
<!-- 68 -->
<g id="node69" class="node">
<title>68</title>
<ellipse fill="none" stroke="black" cx="1534.6" cy="-279" rx="27" ry="18"/>
<text text-anchor="middle" x="1534.6" y="-275.3" font-family="Times New Roman,serif" font-size="14.00">533</text>
</g>
<!-- 67&#45;&gt;68 -->
<g id="edge68" class="edge">
<title>67&#45;&gt;68</title>
<path fill="none" stroke="#999999" d="M1555.46,-348.21C1551.83,-336.33 1546.88,-320.17 1542.72,-306.56"/>
<polygon fill="#999999" stroke="#999999" points="1546,-305.3 1539.72,-296.76 1539.3,-307.34 1546,-305.3"/>
<text text-anchor="middle" x="1553.1" y="-318.8" font-family="Times New Roman,serif" font-size="14.00">0</text>
</g>
<!-- 69 -->
<g id="node70" class="node">
<title>69</title>
<ellipse fill="none" stroke="black" cx="1606.6" cy="-279" rx="27" ry="18"/>
</g>
<!-- 67&#45;&gt;69 -->
<g id="edge69" class="edge">
<title>67&#45;&gt;69</title>
<path fill="none" stroke="#999999" d="M1569.47,-348.61C1576.13,-336.3 1585.37,-319.23 1592.97,-305.19"/>
<polygon fill="#999999" stroke="#999999" points="1596.23,-306.51 1597.91,-296.05 1590.07,-303.18 1596.23,-306.51"/>
<text text-anchor="middle" x="1590.1" y="-318.8" font-family="Times New Roman,serif" font-size="14.00">1</text>
</g>
<!-- 70 -->
<g id="node71" class="node">
<title>70</title>
<ellipse fill="none" stroke="black" cx="1570.6" cy="-192" rx="27" ry="18"/>
<text text-anchor="middle" x="1570.6" y="-188.3" font-family="Times New Roman,serif" font-size="14.00">349</text>
</g>
<!-- 69&#45;&gt;70 -->
<g id="edge70" class="edge">
<title>69&#45;&gt;70</title>
<path fill="none" stroke="#999999" d="M1599.49,-261.21C1594.37,-249.14 1587.39,-232.64 1581.56,-218.89"/>
<polygon fill="#999999" stroke="#999999" points="1584.7,-217.31 1577.57,-209.47 1578.25,-220.04 1584.7,-217.31"/>
<text text-anchor="middle" x="1595.1" y="-231.8" font-family="Times New Roman,serif" font-size="14.00">0</text>
</g>
<!-- 71 -->
<g id="node72" class="node">
<title>71</title>
<ellipse fill="none" stroke="black" cx="1642.6" cy="-192" rx="27" ry="18"/>
<text text-anchor="middle" x="1642.6" y="-188.3" font-family="Times New Roman,serif" font-size="14.00">371</text>
</g>
<!-- 69&#45;&gt;71 -->
<g id="edge71" class="edge">
<title>69&#45;&gt;71</title>
<path fill="none" stroke="#999999" d="M1613.71,-261.21C1618.82,-249.14 1625.81,-232.64 1631.63,-218.89"/>
<polygon fill="#999999" stroke="#999999" points="1634.95,-220.04 1635.62,-209.47 1628.5,-217.31 1634.95,-220.04"/>
<text text-anchor="middle" x="1631.1" y="-231.8" font-family="Times New Roman,serif" font-size="14.00">1</text>
</g>
<!-- 73 -->
<g id="node74" class="node">
<title>73</title>
<ellipse fill="none" stroke="black" cx="1664.6" cy="-453" rx="27" ry="18"/>
</g>
<!-- 72&#45;&gt;73 -->
<g id="edge73" class="edge">
<title>72&#45;&gt;73</title>
<path fill="none" stroke="#999999" d="M1664.6,-521.8C1664.6,-510.16 1664.6,-494.55 1664.6,-481.24"/>
<polygon fill="#999999" stroke="#999999" points="1668.1,-481.18 1664.6,-471.18 1661.1,-481.18 1668.1,-481.18"/>
<text text-anchor="middle" x="1668.1" y="-492.8" font-family="Times New Roman,serif" font-size="14.00">0</text>
</g>
<!-- 76 -->
<g id="node77" class="node">
<title>76</title>
<ellipse fill="none" stroke="black" cx="1784.6" cy="-453" rx="27" ry="18"/>
</g>
<!-- 72&#45;&gt;76 -->
<g id="edge76" class="edge">
<title>72&#45;&gt;76</title>
<path fill="none" stroke="#999999" d="M1682.56,-526.27C1702.62,-512.07 1735.28,-488.93 1758.23,-472.67"/>
<polygon fill="#999999" stroke="#999999" points="1760.37,-475.45 1766.51,-466.81 1756.33,-469.74 1760.37,-475.45"/>
<text text-anchor="middle" x="1736.1" y="-492.8" font-family="Times New Roman,serif" font-size="14.00">1</text>
</g>
<!-- 74 -->
<g id="node75" class="node">
<title>74</title>
<ellipse fill="none" stroke="black" cx="1634.6" cy="-366" rx="28.7" ry="18"/>
<text text-anchor="middle" x="1634.6" y="-362.3" font-family="Times New Roman,serif" font-size="14.00">1335</text>
</g>
<!-- 73&#45;&gt;74 -->
<g id="edge74" class="edge">
<title>73&#45;&gt;74</title>
<path fill="none" stroke="#999999" d="M1658.67,-435.21C1654.48,-423.33 1648.77,-407.17 1643.97,-393.56"/>
<polygon fill="#999999" stroke="#999999" points="1647.14,-392.02 1640.51,-383.76 1640.54,-394.35 1647.14,-392.02"/>
<text text-anchor="middle" x="1655.1" y="-405.8" font-family="Times New Roman,serif" font-size="14.00">0</text>
</g>
<!-- 75 -->
<g id="node76" class="node">
<title>75</title>
<ellipse fill="none" stroke="black" cx="1709.6" cy="-366" rx="28.7" ry="18"/>
<text text-anchor="middle" x="1709.6" y="-362.3" font-family="Times New Roman,serif" font-size="14.00">1411</text>
</g>
<!-- 73&#45;&gt;75 -->
<g id="edge75" class="edge">
<title>73&#45;&gt;75</title>
<path fill="none" stroke="#999999" d="M1673.27,-435.61C1679.75,-423.38 1688.72,-406.44 1696.12,-392.46"/>
<polygon fill="#999999" stroke="#999999" points="1699.36,-393.81 1700.95,-383.34 1693.18,-390.54 1699.36,-393.81"/>
<text text-anchor="middle" x="1694.1" y="-405.8" font-family="Times New Roman,serif" font-size="14.00">1</text>
</g>
<!-- 77 -->
<g id="node78" class="node">
<title>77</title>
<ellipse fill="none" stroke="black" cx="1784.6" cy="-366" rx="28.7" ry="18"/>
<text text-anchor="middle" x="1784.6" y="-362.3" font-family="Times New Roman,serif" font-size="14.00">1444</text>
</g>
<!-- 76&#45;&gt;77 -->
<g id="edge77" class="edge">
<title>76&#45;&gt;77</title>
<path fill="none" stroke="#999999" d="M1784.6,-434.8C1784.6,-423.16 1784.6,-407.55 1784.6,-394.24"/>
<polygon fill="#999999" stroke="#999999" points="1788.1,-394.18 1784.6,-384.18 1781.1,-394.18 1788.1,-394.18"/>
<text text-anchor="middle" x="1788.1" y="-405.8" font-family="Times New Roman,serif" font-size="14.00">0</text>
</g>
<!-- 78 -->
<g id="node79" class="node">
<title>78</title>
<ellipse fill="none" stroke="black" cx="1859.6" cy="-366" rx="28.7" ry="18"/>
<text text-anchor="middle" x="1859.6" y="-362.3" font-family="Times New Roman,serif" font-size="14.00">1511</text>
</g>
<!-- 76&#45;&gt;78 -->
<g id="edge78" class="edge">
<title>76&#45;&gt;78</title>
<path fill="none" stroke="#999999" d="M1797.66,-437.19C1809.13,-424.19 1826.01,-405.06 1839.25,-390.06"/>
<polygon fill="#999999" stroke="#999999" points="1842.19,-392.02 1846.18,-382.21 1836.94,-387.39 1842.19,-392.02"/>
<text text-anchor="middle" x="1830.1" y="-405.8" font-family="Times New Roman,serif" font-size="14.00">1</text>
</g>
</g>
</svg>
